<?xml version="1.0" standalone="no"?><svg data-noselect="" 
  viewBox="84.5 36 631 473.5" 
  width="631" 
  height="473.5" 
  ref="svg_canvas" 
  preserveAspectRatio="none" 
  version="1.1" xmlns="http://www.w3.org/2000/svg" 
  style="background: #001529;">
    <defs></defs>
    <g id="shape_m6bj3p8Csc" class="icon"  ref="shape_m6bj3p8Csc" key="shape_m6bj3p8Csc" transform="translate(316.75,116) rotate(0,83.25,83.25) scale(1,1)" style="cursor:move;display:inline;opacity:1;" filter="">
            <g style="display:inline"><rect fill="rgba(0,0,0,0)" width="186.5" height="186.5" x="-10" y="-10"></rect><svg version="1.1" id="图层_1" xmlns="http://www.w3.org/2000/svg" xmlns:xlink="http://www.w3.org/1999/xlink" x="0px" y="0px" viewBox="0 0 129.39999389648438 129.39999389648438" enable-background="new 0 0 129.3 129.3" xml:space="preserve" width="166.5" height="166.5" class="style-removed" preserveAspectRatio="none" data-parent="shape_m6bj3p8Csc">
<g>
	<path fill="#00DDFF" d="M43.8,65.4C43.8,65.3,43.9,65.3,43.8,65.4C43.7,65.4,43.8,65.4,43.8,65.4z"></path>
	<path fill="#00DDFF" d="M44.4,66.4C44.3,66.4,44.3,66.4,44.4,66.4C44.4,66.4,44.4,66.4,44.4,66.4z"></path>
	<path fill="#00DDFF" d="M106.5,23.4c0.1,0,0.1,0,0.2,0C106.5,23.2,106.1,22.7,106.5,23.4z"></path>
	<path fill="#00DDFF" d="M44.2,42.4c0.3-0.3,0.4-0.4,0.5-0.6C44.6,41.9,44.4,42.3,44.2,42.4z"></path>
	<path fill="#00DDFF" d="M76.1,80.6C76.1,80.6,76,80.6,76.1,80.6C76,80.7,76,80.7,76.1,80.6l0.1,0.1C76.1,80.7,76.1,80.7,76.1,80.6z
		"></path>
	<path fill="#00DDFF" d="M36.2,56.4c0.1-0.2,0.1-0.4,0.2-0.6c0-0.1,0-0.1,0-0.2c-0.1,0.1-0.2,0.2-0.3,0.4
		C36.1,56.2,36.1,56.4,36.2,56.4z"></path>
	<path fill="#00DDFF" d="M76,80.7C76,80.7,76,80.7,76,80.7L76,80.7C76,80.6,76,80.7,76,80.7z"></path>
	<path fill="#00DDFF" d="M35.9,56.4c-0.1,0.2-0.2,0.5-0.3,0.6C35.8,56.8,35.9,56.6,35.9,56.4z"></path>
	<path fill="#00DDFF" d="M44.2,66.2l0.1-0.1c-0.2-0.1-0.1,0-0.3-0.1c0.1,0,0.1,0,0.2,0c-0.2,0,0.2-0.2,0-0.2c-0.1,0-0.2,0-0.2,0
		c0,0,0.1,0,0.1,0l-0.1,0c0,0,0.1,0,0.1,0c-0.1,0-0.2-0.1-0.1-0.1c-0.1-0.1-0.2,0.1-0.2,0.1c0.1,0,0.2-0.1,0.2-0.1
		c-0.1,0-0.1,0-0.2,0l0.1-0.1c0,0-0.1,0,0-0.1c-0.1,0-0.1,0-0.1,0c-0.1,0-0.3,0.2-0.3,0.2c0.1-0.1,0-0.1,0.2-0.2l0.1,0
		c0.1-0.2-0.2,0.1,0-0.2c0,0,0.1,0,0.2,0l-0.1,0c0,0,0,0,0.1,0c0,0-0.1,0-0.2,0.1l0,0c0,0,0,0-0.1-0.1c0,0,0.1,0,0,0l-0.1,0
		c0,0,0.1-0.1,0.1-0.1c0-0.1-0.3,0.2-0.2,0.1c0,0,0,0,0,0l0-0.1c-0.2,0.2-0.2-0.1-0.4,0.2c0.1-0.1,0-0.1,0.2-0.2l0-0.1
		c0,0,0,0,0.1,0c0-0.1-0.1,0-0.2,0c0-0.1,0.2-0.2,0.1-0.2c-0.1,0-0.1,0.2-0.2,0.2l0.1-0.2c-0.1,0.1-0.1,0-0.2-0.1c0,0,0,0,0,0l0,0
		l0,0c0,0,0,0.1-0.1,0.1l0.1-0.1l0,0c0-0.1-0.2,0.1-0.2,0.1c0,0,0-0.1,0-0.2l-0.1,0.1c0,0,0.1-0.1,0.1-0.2c0,0-0.1,0.1-0.1,0.1
		c0,0,0-0.1,0-0.1c0,0-0.1,0.1-0.1,0.1c0,0,0,0,0,0c0,0-0.1,0.1-0.1,0l0-0.1c0,0.1,0,0,0.1,0c-0.1,0,0,0,0-0.1c0,0-0.1,0.1-0.1,0.2
		c0,0-0.1-0.1-0.1,0l0-0.1l0,0l0-0.2c-0.1-0.1,0,0.2-0.1,0.2l0-0.1c0,0,0,0.3-0.1,0.1c0,0.1,0.1,0.2,0,0.2c0-0.1-0.1-0.1-0.1-0.1
		c0,0.1,0,0.1,0.1,0.1c-0.1,0.1-0.1-0.4-0.2-0.2c0.1,0.1,0,0.2,0.1,0.2c0,0.1-0.1-0.2-0.1,0l0-0.2c0,0,0,0.1,0,0.1l0-0.1
		c0,0.2-0.1-0.1-0.1,0.2c0-0.2,0,0-0.1,0c0-0.2,0.1,0,0.1-0.2c0,0,0,0.1-0.1,0c0,0,0,0,0,0c0,0,0,0,0,0c0,0,0-0.1,0-0.1
		c-0.1-0.1-0.1,0.2-0.1,0.2l0.1-0.1c0.1,0.2,0,0,0,0.2c-0.1-0.1,0,0.1-0.1,0c0,0,0,0,0,0c-0.1,0-0.3-0.2-0.3-0.2c0,0-0.1,0.1,0,0.2
		c0,0.1,0.1-0.1,0.2,0.1c-0.2-0.2,0,0.1-0.2,0c0-0.1-0.1-0.1-0.1-0.2c0,0.1,0,0.1,0,0.2L41,64.7c0.1,0.2,0.1,0.2,0.1,0.3
		c0-0.1-0.1-0.1-0.1-0.1c0,0,0,0.1,0,0.1l0,0c0,0.1-0.2,0-0.1,0.1l0,0c0,0.2-0.1,0.3-0.1,0.4l0.1,0c0,0,0,0.1-0.1,0.1c0,0,0,0,0,0
		c-0.1,0-0.2,0-0.2,0l0.1,0l-0.1,0c0,0,0.1,0,0.1,0.1c-0.3-0.1-0.1,0.2-0.3,0.2c0.2,0.1,0.1-0.1,0.2,0c0,0-0.1,0-0.1,0l0.1,0
		c-0.1,0.1-0.2,0.2-0.2,0.3l0,0c0,0,0,0.1,0.1,0.1c-0.1,0-0.1,0-0.1,0c0.3,0.1-0.2,0.2,0,0.2c-0.1,0-0.2,0-0.3,0.1c0,0,0,0.1,0,0.1
		c0.1,0.7,0.5,1.2,1.1,1.5c0,0,0,0,0,0c0,0,0,0,0,0c0.1,0,0.1,0.1,0.2,0.1c0,0,0,0,0.1-0.1c0,0,0,0.1,0,0.1c0,0,0,0,0,0l0.1,0
		c0,0,0,0,0,0c0.1,0,0.1,0.1,0.2,0.1l0,0l0,0l0,0c0.1,0,0.1,0,0.2,0.1c0,0,0-0.1,0.1-0.1c0.1,0.1,0.2,0.1,0.3,0.1c0.1,0,0.2,0,0.3,0
		c0-0.1,0-0.1,0-0.2c0,0.1-0.1,0.2-0.1,0c0-0.1,0.1-0.1,0.1-0.2c0.1,0.2-0.1,0.1,0,0.2c0,0,0-0.1,0-0.1c0,0.1,0,0.1,0.1,0.2
		c0.1,0,0.2,0.1,0.3,0c0,0,0,0,0,0c0,0,0,0,0.1,0c0-0.1,0-0.2,0-0.3c0.1,0,0.1,0.1,0.1,0c-0.1-0.1,0,0,0-0.1c0,0,0,0.1,0.1,0.1
		c0,0,0-0.1,0-0.1c0.1,0.1,0.1,0.3,0.1,0.4c0,0,0,0,0.1,0l0-0.1l0,0l0,0.1c0,0,0,0,0.1,0c-0.1-0.2-0.2-0.4-0.3-0.5
		c0-0.1,0.1,0.1,0.1,0.1c0.1,0.1,0-0.1,0.1-0.1l0,0.1c0,0,0.1-0.1,0-0.1c0,0,0.1,0.3,0.2,0.3c0.1,0,0-0.3-0.1-0.5c0,0.1,0,0.1,0,0.2
		c-0.1-0.1,0-0.2-0.1-0.3l0.1,0c0,0,0,0.1,0,0.1c0,0,0,0,0.1,0c0,0.1,0.1,0.3,0.2,0.5c0,0,0.1-0.1,0.1-0.1c-0.1-0.2-0.2-0.3-0.2-0.4
		c0.1,0,0.2,0.2,0.3,0.3c0.1-0.1-0.2-0.4-0.1-0.4l-0.1,0c0,0,0.1-0.1,0-0.1c0.1,0,0.2,0.1,0.3,0.2c0-0.1-0.1-0.2-0.2-0.2
		c0,0,0.2,0.2,0.2,0.2c0,0-0.2-0.2-0.2-0.2c0.2,0,0.1,0,0.3,0.1c0,0-0.2-0.1-0.2-0.1c0-0.1,0-0.1,0-0.1l0,0l0,0c0,0,0.1,0,0-0.1
		l0.3,0.2l-0.3-0.1l0,0c0,0.1,0.2,0.2,0.4,0.3c0,0,0,0,0,0c-0.1-0.1-0.2-0.2-0.4-0.4c0,0,0.2,0.1,0.3,0.2C44,67.2,44,67,44.1,66.9
		l0,0c0.1,0,0.1,0,0.1-0.1c0,0,0,0,0,0c0.2,0-0.3-0.2-0.1-0.2c0,0,0,0.1,0.1,0.1c-0.1-0.1,0-0.1-0.2-0.2c0.1,0,0,0,0.2,0L44,66.5
		c0,0,0.1,0,0.1,0c0,0.1,0.2,0.2,0,0.2c0.2,0,0.2,0,0.4,0.1c0-0.2-0.3-0.3-0.5-0.3l0.1-0.1L44.2,66.2L44.2,66.2
		C44.2,66.3,44.2,66.3,44.2,66.2C44.2,66.3,44.3,66.3,44.2,66.2C44.3,66.3,44.3,66.3,44.2,66.2c0.1,0,0.3,0,0.3,0.1l0,0
		C44.5,66.2,44.3,66.2,44.2,66.2z M42.1,68.5C42.1,68.4,42.1,68.4,42.1,68.5l0-0.2L42.1,68.5z M42.3,68.3c-0.1,0,0-0.1,0-0.1
		C42.4,68.2,42.3,68.3,42.3,68.3z M43,65.1C43.1,65,43,65.1,43,65.1C43.1,65.1,43,65.1,43,65.1z M43.5,65.1l-0.1,0.1l0,0L43.5,65.1z
		 M43.4,67.6c0.1,0-0.1-0.1,0-0.1C43.6,67.6,43.5,67.6,43.4,67.6C43.5,67.6,43.5,67.6,43.4,67.6z M43.6,65.6L43.6,65.6L43.6,65.6
		C43.6,65.6,43.6,65.6,43.6,65.6z"></path>
	<path fill="#00DDFF" d="M44.6,66.4C44.6,66.3,44.6,66.3,44.6,66.4C44.6,66.3,44.6,66.3,44.6,66.4l-0.2,0
		C44.5,66.3,44.5,66.3,44.6,66.4z"></path>
	<path fill="#00DDFF" d="M76.2,80.8C76.2,80.8,76.2,80.8,76.2,80.8C76.2,80.8,76.3,80.9,76.2,80.8z"></path>
	<path fill="#00DDFF" d="M8.7,52.5c-0.1-0.4-0.2-0.7-0.3-0.4c-0.1,0.8-0.2,1.6-0.2,2.4c0.1-0.3,0.3-0.6,0.6-1.1
		C8.7,53.1,8.7,52.8,8.7,52.5z"></path>
	<path fill="#00DDFF" d="M70.7,93C70.8,93,70.8,93,70.7,93c0.1,0,0.1,0,0.2,0C70.9,93,70.8,93,70.7,93z"></path>
	<path fill="#00DDFF" d="M71.7,92.9c-0.2,0-0.4,0.1-0.6,0.1c-0.1,0-0.1,0-0.2,0.1c0.1,0,0.3,0,0.4,0C71.5,93,71.7,93,71.7,92.9z"></path>
	<path fill="#00DDFF" d="M106.8,23.4C106.8,23.5,106.8,23.5,106.8,23.4C106.8,23.4,106.7,23.4,106.8,23.4
		C106.7,23.4,106.7,23.4,106.8,23.4z"></path>
	<path fill="#00DDFF" d="M34.4,14.3c-0.2,0.1-0.5,0.2-0.8,0.2c-0.4,0.2-0.9,0.4-1.4,0.8l0.5,0.1C33.3,15,34,14.6,34.4,14.3z"></path>
	<path fill="#00DDFF" d="M75.6,81.8C75.7,81.9,75.6,81.8,75.6,81.8C75.6,81.8,75.5,81.8,75.6,81.8z"></path>
	<path fill="#00DDFF" d="M36.5,55.5C36.5,55.5,36.5,55.6,36.5,55.5c0,0.1-0.1,0.1-0.1,0.2C36.5,55.6,36.5,55.6,36.5,55.5z"></path>
	<path fill="#00DDFF" d="M8.7,52.1c0,0.1,0,0.3,0,0.4c0,0.2,0.1,0.4,0.2,0.7C9,53,9.2,52.7,9.4,52.4C9.3,51.8,9.1,51.3,8.7,52.1z"></path>
	<polygon fill="#00DDFF" points="106.8,23.3 106.8,23.3 106.8,23.4 	"></polygon>
	<path fill="#00DDFF" d="M44.6,66.3C44.6,66.3,44.6,66.3,44.6,66.3L44.6,66.3C44.6,66.3,44.6,66.3,44.6,66.3z"></path>
	<path fill="#00DDFF" d="M72.8,46.3C72.8,46.3,72.8,46.2,72.8,46.3L72.8,46.3C72.7,46.3,72.7,46.3,72.8,46.3z"></path>
	<path fill="#00DDFF" d="M75.9,44.2c-0.1,0,0.1,0.1-0.2,0.1c0.3-0.1-0.1-0.1,0.1-0.2c0.1,0,0.2-0.1,0.2,0c0-0.1-0.1-0.1-0.2-0.1
		l0.1,0c-0.2,0-0.2,0-0.3-0.1c0.1,0,0.1-0.1,0.2-0.1c0,0,0-0.1-0.1-0.1h0c-0.1-0.1,0.1-0.1-0.1-0.2l0,0c-0.2-0.1-0.2-0.2-0.3-0.3
		l0,0.1c0,0-0.1,0-0.1-0.1c0,0,0,0,0,0c0,0,0.1-0.1,0.1-0.1l-0.1,0l0-0.1c0,0-0.1,0.1-0.1,0.1c0.2-0.2-0.1-0.2,0-0.4
		c-0.2,0.1,0.1,0.1-0.1,0.2c0,0,0-0.1,0-0.1l-0.1,0.1c-0.1-0.1,0-0.3-0.2-0.3l0,0c0-0.1-0.1-0.1-0.1,0c0-0.1,0.1-0.1,0.1-0.1
		c-0.2,0.2-0.1-0.3-0.2-0.1c0-0.1,0.1-0.2,0.1-0.3c0,0-0.1,0-0.1-0.1c-0.6-0.2-1.3-0.1-1.8,0.2c0,0,0,0,0,0c0,0,0,0,0,0
		c-0.1,0-0.1,0.1-0.2,0.1c0,0,0,0.1,0,0.1c0,0,0,0,0-0.1c0,0,0,0,0,0l0,0.1c0,0,0,0,0,0c-0.1,0-0.1,0.1-0.2,0.1l0,0l0,0l-0.1,0
		c-0.1,0-0.1,0.1-0.1,0.1c0,0,0,0.1,0,0.1c-0.1,0-0.2,0.2-0.3,0.2c-0.1,0.1-0.1,0.2-0.2,0.3c0.1,0,0.1,0.1,0.2,0.1
		c0-0.1-0.1-0.2,0-0.1c0,0.1,0,0.1,0.1,0.2c-0.2,0,0-0.1-0.2-0.1c0,0,0,0.1,0.1,0.1c-0.1,0-0.1,0-0.2,0c0,0.1-0.1,0.1-0.2,0.2
		c0,0,0,0,0,0c0,0,0,0,0,0.1c0.1,0.1,0.2,0.1,0.3,0.1c0,0.1-0.1,0,0,0.1c0.2,0,0,0,0.1,0c0,0-0.1,0-0.1,0c0,0,0.1,0,0.1,0
		c-0.1,0-0.3-0.1-0.4-0.1c0,0,0,0,0,0.1l0.1,0l0,0l-0.1,0c0,0,0,0.1,0,0.1c0.2,0,0.5,0,0.6,0c0.1,0-0.1,0-0.1,0.1
		c-0.2,0.1,0.1,0.1,0.1,0.1l-0.1,0c0,0,0,0.1,0.1,0.1c-0.1,0-0.3,0-0.4,0c0,0.1,0.3,0.2,0.5,0.1c-0.1,0-0.1-0.1-0.2-0.1
		c0.1,0,0.1,0.1,0.3,0.1l0,0.1c0,0,0,0-0.1,0c0,0,0,0-0.1,0.1c-0.1,0-0.3,0-0.5-0.1c0,0,0,0.1,0,0.1c0.2,0,0.4,0,0.4,0
		c0,0.1-0.3,0.1-0.4,0.1c0,0.1,0.4,0,0.4,0.1l0.1-0.1c0,0,0,0.1,0,0.1c-0.1,0-0.2,0.1-0.3,0.1c0.1,0,0.2,0,0.3,0
		c0,0-0.3,0.1-0.3,0.1c0,0,0.3-0.1,0.3-0.1c-0.1,0.1-0.1,0.1-0.2,0.2c0,0,0.2-0.1,0.2-0.1c0.1,0,0.1,0,0,0.1l0,0l0,0
		c0,0,0,0.1,0.1,0L72,45.3l0.3-0.2l0,0c-0.1,0-0.3,0.1-0.5,0.2c0,0,0,0,0,0c0.2,0,0.3-0.1,0.5-0.1c0,0-0.2,0.1-0.3,0.1
		c0.2-0.1,0.3,0,0.3,0.1l0,0c-0.1,0-0.1,0.1,0,0.1c0,0,0,0,0,0c-0.1,0.2,0.3-0.2,0.2,0c0-0.1-0.1,0-0.2,0.1c0.1,0,0.1,0.1,0.3-0.1
		c0,0.1,0,0-0.1,0.1l0.2,0c0,0-0.1,0.1-0.1,0.1c0-0.1-0.2,0.1-0.1-0.1c-0.1,0.1-0.1,0.2-0.3,0.3c0.2,0,0.4-0.1,0.5-0.2l0,0.1l0-0.1
		L72.9,46c0,0,0.1-0.1,0.1,0c0,0,0,0,0,0.1c0,0,0,0,0,0c0,0.1-0.1,0.2-0.2,0.2l0,0c0.1-0.1,0.2-0.2,0.2-0.3l0,0.1
		c0.1-0.1,0.1-0.1,0.2-0.2c0,0.1-0.1,0.1-0.1,0.1c0.1-0.2,0.1,0.3,0.1,0.1c0.1,0,0.1-0.1,0.1-0.2c0,0,0,0.1,0,0.1l0.1-0.1
		c0,0-0.1,0.1,0,0.1c0.1-0.1,0.1-0.1,0.2-0.1c0.1,0,0-0.3,0.1-0.2c0,0.1,0,0.2,0,0.2c0-0.1,0-0.2,0.1-0.2l0,0.2c0,0,0.1,0,0.1,0.1
		c0-0.1,0-0.1,0.1,0c0-0.1,0-0.3,0-0.4c0,0.1,0.1,0,0.1,0.2l0,0c0.1,0.2,0.1-0.2,0.1,0.1c0,0-0.1,0.1,0,0.2l0-0.1c0,0,0,0,0,0.1
		c0,0,0-0.1,0-0.2l0,0c0,0,0.1,0,0.1,0c0,0,0,0.1,0,0.1l0-0.1c0,0,0,0.1,0.1,0.1c0.1,0,0-0.4,0.1-0.2c0,0,0,0,0,0l0,0.1
		c-0.1-0.3,0.1-0.1,0-0.4c0.1,0.1,0,0.1,0.1,0.2l0.1,0.1c0,0,0,0,0,0c0.1,0.1,0.1-0.1,0.1-0.2c0,0,0.1,0.2,0.1,0.2
		c0-0.1-0.1-0.2-0.1-0.3l0.1,0.1c0-0.1,0.1-0.1,0.2-0.1c0,0,0,0,0-0.1l0,0l0,0c0,0-0.1-0.1-0.1-0.1l0.1,0.1l0,0c0.1,0,0-0.2,0.1-0.2
		c0,0,0.1,0.1,0.1,0.1l0-0.1c0,0.1,0.1,0.1,0.1,0.2c0,0,0-0.1,0-0.1c0,0,0,0.1,0.1,0.1c0-0.1,0-0.1-0.1-0.2c0,0,0,0,0,0
		c0,0,0-0.1,0.1-0.1l0.1,0.1c-0.1,0,0,0,0,0.1c0-0.1,0,0,0.1,0c0,0-0.1-0.1-0.1-0.2c0.1,0,0.1,0,0-0.1l0.1,0.1l0-0.1l0.1,0.1
		c0.1,0-0.2-0.1-0.1-0.2l0.1,0.1c0-0.1-0.2-0.2-0.1-0.1c0-0.1-0.2,0-0.2-0.1c0.1,0,0.1,0,0.1,0c0,0-0.1,0-0.1,0
		c0-0.1,0.4,0.1,0.3-0.1c-0.1,0-0.2-0.1-0.2,0c0-0.1,0.2,0,0.1-0.1l0.1,0.1c0,0,0-0.1-0.1-0.1l0.1,0c-0.2-0.1,0.1-0.1-0.1-0.2
		c0.2,0.1,0,0,0.1-0.1c0.1,0.1,0,0.1,0.2,0.2c0.1,0,0-0.1,0-0.1c0,0,0,0,0,0c0,0,0,0,0,0c0,0,0.1,0.1,0.1,0.1
		c0.1-0.1-0.1-0.2-0.1-0.2l0,0.1c-0.2,0,0,0-0.2-0.1c0.1,0,0-0.1,0-0.1c0,0,0,0,0,0c0-0.1,0.3-0.1,0.3-0.1
		C76.1,44.2,76,44.1,75.9,44.2z M72.2,43.1L72.2,43.1L72.2,43.1C72.1,43.1,72.1,43.1,72.2,43.1z M72.1,43.2
		C72.2,43.2,72.2,43.3,72.1,43.2C72.2,43.4,72.2,43.3,72.1,43.2z M72.1,44.7c0.1,0,0-0.1,0.1-0.1c-0.1,0.1,0.1,0,0.1,0
		C72.2,44.7,72.2,44.7,72.1,44.7z M73.8,45.7L73.8,45.7L73.8,45.7C73.8,45.8,73.8,45.8,73.8,45.7z M74.3,45.8L74.3,45.8l0,0.1
		L74.3,45.8z M74.5,45.5C74.5,45.5,74.5,45.5,74.5,45.5C74.6,45.6,74.5,45.5,74.5,45.5z"></path>
	<path fill="#00DDFF" d="M72.7,46.2C72.7,46.2,72.7,46.2,72.7,46.2C72.7,46.2,72.8,46.2,72.7,46.2l0.1-0.1
		C72.8,46.1,72.7,46.2,72.7,46.2z"></path>
	<path fill="#00DDFF" d="M93.9,58.6c0-0.2-0.2-0.5-0.3-0.7C93.7,58.2,93.7,58.4,93.9,58.6z"></path>
	<path fill="#00DDFF" d="M73.9,46C73.9,46.1,74,46.1,73.9,46C74,45.9,73.9,46,73.9,46z"></path>
	<path fill="#00DDFF" d="M86.1,44.6C86.1,44.6,86.1,44.6,86.1,44.6c-0.1-0.1-0.1-0.1-0.1-0.1C86,44.5,86.1,44.6,86.1,44.6z"></path>
	<path fill="#00DDFF" d="M64.7,0C29,0,0,29,0,64.7c0,35.7,29,64.7,64.7,64.7s64.7-29,64.7-64.7C129.3,29,100.4,0,64.7,0z
		 M121.8,52.5l-0.6-0.6l0.1-0.3c-0.2-1.5-1.3-3.5-1-4.4C120.4,48.5,121.3,50.7,121.8,52.5z M122.2,55.5l-0.2-0.1l-0.4-1.1
		L122.2,55.5z M119.8,42.6c0.1,0.4,0.2,0.6,0.3,0.8c0-0.6,0.3,0.8,0,0c0,0.1,0,0.1,0,0.2C119.3,41.8,119.7,43,119.8,42.6z
		 M119.8,47.6c0.1,0.4,0.1,0.8,0.2,0.9l-0.4-0.7c0-0.3-0.1-0.6-0.1-0.9C119.6,47,119.7,47.3,119.8,47.6z M118.8,41.2
		c0.5,1,0.6,1.7,0.6,1.8c-0.1,0.1-0.3-0.3-0.8-1.3C119.2,42.6,119,41.8,118.8,41.2z M118.9,39.8c-0.3-0.3,0.2,0.6,0.2,0.9l-0.7-1
		C118.2,39,118.2,38.7,118.9,39.8z M117.9,39.4l0.7,1.1c-0.3-0.4-0.6-0.6-0.4-0.6C117.7,39.7,117.9,39.6,117.9,39.4l-0.3-0.5
		C117.8,39.1,117.9,39.3,117.9,39.4z M118.2,40.7l-1.3-1.7l-0.2-0.4L118.2,40.7z M115,33.8c0.1-0.2,0-0.7,0.1-0.7
		c-0.1,0.1,0.3,0.9,0.4,1.3L115,33.8c-0.1,0.1-0.3,0-0.8-1L115,33.8z M115.6,35.8c-0.8-0.8-0.5,0-1-0.4
		C114.1,34,115.1,35.3,115.6,35.8z M114,32.9c-0.3-0.3-0.2,0-0.3,0.1c-0.2-0.4-0.4-0.8-0.7-1.2l-0.5-0.5l0.2,0.1l0.3,0.4
		C113.4,32.1,113.7,32.5,114,32.9z M113.3,34.7c-0.2-0.3-0.1-0.2,0-0.1c0.1-0.1,0.4,0.3,0.2-0.2c-0.3-0.5-0.5-0.6-0.6-0.7
		c-0.1-0.7-0.1-1,0-1.4c0-0.1,0-0.1,0-0.1c0,0,0,0.1,0,0.1c0,0.3,0.3,1.3,0.7,2.1l0.1,0.1c0.5,1.1-0.1,0.4-0.4,0.1
		C113.3,34.6,113.3,34.6,113.3,34.7z M113,31c-0.1,0-0.1,0-0.1-0.1c-0.1-0.1-0.2-0.3-0.3-0.4l0,0c-0.4-0.5-0.6-0.8-0.6-0.9
		c0.1,0.1,0.3,0.4,0.6,0.9l0-0.6c0.4,0.6,0.3,0.9,0.3,1C113,31,113,31,113,31z M112.9,29.5l-0.7-0.4l-0.5-0.4L112.9,29.5z
		 M112.8,84.1c0.5,0.2,0.9,0.5,1.7,0.7l-1.2-0.3c0.4,0.2,1,0.3,1.3,0.4l-0.5-0.1c0.6,0.2,1,0.3,1.4,0.5c-1,0.1-2,0.1-2.1,0.3
		c0-0.1-0.2-0.1-0.6,0c-0.4,0.1-0.9,0.1-1.3,0.1c0.5-0.1,1.3-0.2,2-0.3c0.7-0.1,1.2-0.1,0.9-0.2c-0.7,0-0.8,0.1-1.5,0.1
		c-0.2,0.1-0.4,0.1-0.1,0c0,0,0.1,0,0.1,0c0.3-0.1,0.5-0.1,0.5-0.2c-0.9,0-1.3,0.1-1.8,0.2c-0.4,0.1-0.8,0.2-1.3,0.3l1.7-0.2
		c0.2,0.2-0.7,0.1-1,0.3c-0.6,0-0.9,0.1-1.4,0.1c-0.2,0-0.3,0-0.5,0.1c-0.1,0-0.3,0-0.4,0c0.1,0,0.1,0,0.3,0
		c-1.4,0.1-1.8-0.1-2.4-0.1c-0.6,0-1.6,0.2-1.2,0.3c-0.4,0.1,1.9-0.2,1.1,0.1c-0.8-0.2-1.6,0.3-3.4,0.2c0.8-0.2-0.5-0.1,0.2-0.3
		c-0.3,0-0.4,0.1-0.5,0.1c-0.1,0-0.2,0-0.2,0.1c0,0.1,0,0.2,0,0.3c-0.1,0-0.1,0.1-0.2,0.1c-0.3,1.1,0.1,0.3-0.5,1.9
		c0.2-0.5-0.4,0.5-0.3,0.1c-0.2,0.4-0.4,0.8-0.5,1.2l0-0.1c-0.7,1.5-0.7,1.2-1.2,2.6l0.1-0.1c-0.4,0.9-0.8,1.9-1.3,3
		c-0.7,1.6-1.5,3.2-2.2,4.8l0.5-0.9c-0.1,0.2-0.5,1.2-0.9,2.1c0-0.4,0-0.9,0-1.3c0-0.1,0-0.2,0-0.2l0,0.2c0,0.2,0.1,0.5,0.1,0.7
		c0.1-0.3,0.1-1,0.1-1.8c0,0-0.1,0-0.1,0l0.1-0.5c0-1.1-0.1,0.7-0.2-0.5c0.1-0.7,0.1-1.8,0-3c0-0.2,0-0.5,0-0.7c0-0.2,0-0.4,0-0.6
		c0-0.4,0-0.7,0.1-0.8c-0.2-0.5,0,1.4-0.2,0.9c0-0.2,0.1-0.3,0-0.8L96,93.1c0-2.3,0-3.2-0.1-5.2l0,0.1c0-0.7,0-1.1-0.1-1.4
		c0-0.2,0.1,0.4,0.1,0.1c-0.4-1.3,0.1-2.6-0.1-3.3c0.1,0,0.2-0.3,0.3-0.6L96,81.1c0,0-9.8-5.5-18.3-14.6c0,0,0,0,0,0c0,0,0,0,0,0
		c-0.2-0.3-0.5-0.5-0.7-0.8c0,0,0,0,0,0c0,0,0,0,0-0.1c-0.3-0.3-0.5-0.6-0.8-0.9c-0.1-0.1-0.2-0.1-0.2-0.1c-0.1-0.1,0-0.1,0.1,0
		c0,0-0.1-0.1-0.1-0.1L75.5,64c0,0,0,0,0,0c-0.6-0.7-1.2-1.5-1.8-2.3L74,62l0.1,0.2c-0.1-0.2-0.2-0.4-0.4-0.5
		c-0.5-0.6-0.9-1.3-1.4-1.9c-0.1-0.1-0.2-0.3-0.4-0.4c-0.7-1.1-1.8-2.9-2.2-3.9c-0.7-1.3-1.3-2.6-1.8-3.9c-0.1-0.2-0.2-0.2-0.3-0.2
		c0.2,0.5,0.8,1.5,0.8,1.7c-0.3-0.5-0.7-1.4-0.8-1.4c0-0.6,0.4,1,0.3,0.2c-0.1-0.4-0.3-0.5-0.3-0.7c0.2,0.2,0-0.4,0-0.5
		c-0.5-1.2-0.6-2-0.9-3.3c0,0,0,0.1,0,0l0,0c0,0,0,0,0,0c-0.1-0.3-0.1-0.6-0.2-0.9c-0.2-0.4-0.4-0.7-0.4-0.5
		c-0.2-0.8-0.1-0.8-0.2-1.5c0,1.1,0-0.2-0.2-0.3c-0.1-0.7,0-0.3,0-0.6c0-0.1-0.1-0.4-0.2-0.4c0,0.1,0,0.2,0,0.4c0-0.3,0-0.4,0-0.4
		c0.1-0.4,0.3,0.4,0.5,0.4c0-0.3-0.1-0.7-0.1-1l-0.1,0l0-0.2l0.1,0c0-0.3,0-0.7-0.1-1c-0.2,0-0.5,0.2-0.5,0.5c-0.1,0,0.1-0.7,0.1-1
		c0.1-0.9-0.1-1.4,0-2.1l0.1,0.6c0-0.1,0-1.2,0-1.4c0.1,0,0.3,0.6,0.3,0.3c0.1-1.3,0-2.6-0.2-2.5l-0.1,2c-0.1,0.1,0-1.5-0.1-1.4
		c0.1-0.6,0.2-1.2,0.4-1.9c0,0.2-0.2,1,0,0.7c0.2-0.8,0.1-0.4,0.3-0.9c0,0.5,0,1.3,0.1,2c0.1-0.5,0.2-1,0.3-1.5
		c-0.1-0.5-0.1-1-0.2-1.1c0.3-1,0.4-0.4,0.5-0.2c0-0.2,0.1-0.3,0.1-0.5c0-0.1,0-0.2,0-0.2h0.2c0.2,0,0.4,0,0.6,0
		c0.5,0,0.8,0,1.5,0.2l-0.5-0.2c0.3,0,1.5,0.4,1.4,0.4c0.3,0.2,0.4,0.4,0.1,0.4l1.3,0.1c-0.2,0-0.1,0.2-0.2,0.3
		c0.5,0.2,0.9,0,0.6-0.1c0.9,0.5,0.7,0.3,1.3,0.8c0.3,0.1,0.1-0.2-0.1-0.4c0.6,0.2,1,0.4,1.3,0.5l0,0l0,0c0.3,0.2,0.5,0.3,1,0.4
		l-0.8,0.1l-0.2-0.4c0,0,0,0,0,0c-0.7-0.2-0.7,0-0.7,0.2c0.2,0.1,0.5,0.2,0.7,0.3c0.5,0.1,1.1,0.2,1.6,0.3c-0.1,0-0.4,0.1-0.4,0.2
		c0.3-0.1,2.7,1.2,3.7,2l-0.2-0.1c-0.1,0,0,0.1,0.3,0.3c0.2,0.2,0.6,0.4,0.8,0.5c-0.1,0-0.2-0.1-0.3-0.2c0.6,0.7,1.1,0.4,1.7,1.1
		c-0.6-0.6-0.8-0.5-0.8-0.5c0.6,0.3,1.7,1.4,1.6,1c0.3,0.3,0.6,0.5,0.5,0.6c0.4,0.3,0.9,0.7,1.3,1c-0.1-0.1-0.2-0.1,0.1,0.3
		c-0.6-0.7-1.4-1.2-1.7-1.6c-0.1,0.1,0.1,0.4-0.3,0.2c0.7,0.5,1.2,1,1.7,1.3c0.5,0.4,0.9,0.7,1.4,1l0.9,1.3l0.1,0c0,0.1,0,0.2,0,0.3
		c0.1,0.1,0.2,0.2,0.3,0.3c0,0,0,0-0.1,0c0.1,0.1,0.2,0.2,0.3,0.3c0,0,0-0.1,0-0.1c0.1,0.2,0.1,0.2,0,0.1c0,0.1-0.3-0.1-0.5-0.2
		l0.1,0.1c0.5,0.5,1.1,1.1,0.9,0.5l-0.3-0.5c0.1,0.2,0.2,0.4,0.3,0.5l0.4,0.8c0.8,0.8,0.6,0.7,1.4,1.7c0,0.1-0.2-0.2-0.2,0
		c0.7,0.7,0.9,2.1,1.2,2.2c0.4,0.7,0.3,0.2,0.6,0.6c0,0-0.1,0,0,0.1c0.1,0.2,0.3,0.3,0.4,0.5c0.1,0.2-0.3-0.4-0.1,0.2
		c0.6,1,0.9,1.5,1.2,2.4c0.5,1.2,0-0.6,0.4,0.4c0,0.2-0.1,0.4,0.2,1c0.2,0.3,0.3,0.2,0.6,0.8l-0.2,0c0.2,0.5,0.4,1,0.3,1
		c0.2,0.4,0.3,0.7,0.4,1c0.4,0.8,0.1-0.7,0.1-0.9c0.2,0.9,0.5,1.4,0.5,1.9l-0.3-0.7c0.4,1.6,0.7,1.4,0.7,2.2
		c-0.2-0.5-0.5-1.1-0.4-0.8l0.3,0.7c0,0.1-0.2-0.4-0.1-0.1c0.1,0.2,0.3,0.6,0.5,0.8l0.1,0c0,0.1,0,0.1-0.1,0l0,0
		c0.2,0.5,0.3,0.9,0.5,1.4c-0.1-0.3-0.2-0.3-0.1,0l0.4,0.9c0,0.1,0.1,0.2,0.1,0.3l-0.1-0.3c-0.1-0.3-0.1,0,0,0.5
		c0.3,1.2,0.6,0.8,0.7,1.8c0-0.1-0.1-0.2-0.1-0.3l0.1,0.5c0.4,0,0.8,2.8,1.2,2.8c0,0.7-0.1,0.1-0.5-0.8l0.1,0.7
		c-0.1-0.3-0.1-0.5-0.2-0.8c0.1,1,0.5,1.8,0.7,2.3c0,0.4-0.3-0.2,0,0.8c0.4,1.4,0.2-0.3,0.4,0.5l0,0.7c0.4,1.1,0.5,2,0.7,2.9
		c0.1,0.2,0.1,0.3,0.1,0.4l0,0l0,0.1c0.1,0,0.1-0.2,0.2,0.3l-0.2-0.3c0,0,0,0,0,0c0.1,1,0.6,2.1,0.7,2.9c0-0.1,0,0,0,0.2
		c0,0.2,0,0.2,0,0.2l0,0.1l0.2,0l0.5,0.2c-0.3-0.1-0.4-0.1-0.5-0.1c-0.1,0-0.1,0.1-0.1,0.1c0.1,0,0.1,0,0.2,0.1c0.1,0,0.2,0,0.2,0.1
		c0.1,0,0.3,0.1,0.4,0.1c-0.2,0-0.4-0.1-0.2,0.1l1.4,0.4c-0.1,0-0.2-0.1-0.4-0.2c0.3,0.1,1.1,0.4,1.6,0.7c-0.1,0-0.2,0-0.3,0
		c-0.4-0.3-0.6-0.3-0.9-0.3c0.9,0.4,0.2,0.1,0.7,0.4c0.7,0.3,1,0.3,0.8,0.1c0.7,0.3,1,0.5,1.8,0.7l-0.2,0.1l0.7,0.2l-0.6-0.1
		c1.3,0.6,0.3-0.1,1.8,0.6l0,0.1c0.6,0.2,0.9,0.1,1.3,0.4c0.6,0.2-0.9-0.5,0.4,0c0.2,0.2,0.7,0.4,1.1,0.6c0.4,0.1-0.3-0.3-0.5-0.4
		c0.5,0.2,0.8,0.3,1,0.5c0.2,0.1,0.3,0.2,0.6,0.4c0.4,0.3,0.6,0.4,2,0.9c-0.4-0.2-0.1-0.1,0-0.1c0.1,0,0.1-0.1-1.2-0.6
		C111.8,83.6,112.3,83.9,112.8,84.1z M91.4,82.2C91.4,82.3,91.4,82.2,91.4,82.2C91.5,82.2,91.5,82.2,91.4,82.2l0-0.1
		c0,0-0.1-0.1-0.1-0.1c-0.2-0.2-0.3-0.4-0.2-0.3c0.2,0.2,0.3,0.4,0.4,0.4c0.1,0.1,0,0.1,0,0.1c0,0.1,0,0.1-0.5,0.7
		C90.6,83.2,91,82.8,91.4,82.2z M91.2,81.9c0.1,0,0.1,0.1,0.2,0.1c0,0,0.1,0.1,0.1,0.1C91.4,82.1,91.3,82,91.2,81.9z M71.7,73.3
		c-0.7-0.1,0.1-0.1,0.2-0.1C72.8,73.3,71.8,73.3,71.7,73.3z M69.8,73.2l0,0.2c-0.1,0-0.1-0.1-0.3-0.1L69.8,73.2z M69.4,55.4l0.1-0.1
		c0,0.1,0,0.2,0.1,0.4L69.4,55.4z M68.4,53.6c-0.4-0.9,0.1,0,0.2,0.1C68.8,54.3,68.5,53.6,68.4,53.6z M59.6,51.9
		C59.6,51.9,59.6,51.9,59.6,51.9C59.6,51.9,59.6,51.9,59.6,51.9c-0.1,0.4-0.2,0.7-0.3,1c0,0,0,0,0,0c0,0,0,0,0,0
		c-0.1,0.4-0.2,0.7-0.4,1.1c0,0.1,0,0.2,0,0.2c-0.1,0.2-0.1,0-0.1-0.1c0,0,0,0.1,0,0.1L58.6,55c0,0,0,0-0.1,0
		c-0.3,0.9-0.7,1.8-1.1,2.7l0.2-0.3l0.1-0.2c-0.1,0.2-0.2,0.4-0.3,0.6c-0.3,0.7-0.6,1.4-1,2.2c0,0.1-0.1,0.4-0.2,0.5
		c-0.6,1.1-1.6,3-2.2,3.8c-0.8,1.2-1.6,2.4-2.5,3.6c-0.1,0.2-0.1,0.3,0,0.4c0.3-0.5,0.9-1.5,1.1-1.5c-0.3,0.5-0.8,1.3-0.8,1.4
		c-0.5,0.3,0.6-0.9,0-0.4c-0.3,0.3-0.3,0.5-0.4,0.6c0.1-0.3-0.3,0.2-0.4,0.3c-0.8,1-1.4,1.5-2.4,2.5c0,0,0.1,0,0,0l0,0c0,0,0,0,0,0
		c-0.2,0.2-0.5,0.4-0.7,0.7c-0.2,0.4-0.4,0.7-0.2,0.6c-0.6,0.5-0.7,0.5-1.2,1c1-0.5-0.2,0.1-0.2,0.3c-0.5,0.4-0.2,0.1-0.5,0.2
		c-0.1,0.1-0.3,0.3-0.3,0.3c0.1,0,0.2-0.1,0.4-0.2c-0.3,0.2-0.3,0.2-0.4,0.2c-0.3,0.1,0.2-0.5,0.1-0.6c-0.3,0.2-0.6,0.4-0.9,0.6l0,0
		l-0.2,0.1l0-0.1c-0.3,0.2-0.6,0.4-0.8,0.6c0.1,0.2,0.4,0.3,0.7,0.2c0,0.1-0.6,0.3-0.9,0.4c-0.8,0.4-1.1,0.8-1.8,1.1l0.5-0.3
		c-0.1,0-1.1,0.6-1.2,0.7c0,0,0.4-0.5,0-0.4c-1.2,0.5-2.3,1.3-2.1,1.4l1.8-0.9c0.1,0.1-1.3,0.7-1.1,0.8c-0.6,0.2-1.2,0.5-1.8,0.6
		c0.2-0.1,0.9-0.3,0.6-0.3c-0.8,0.2-0.4,0.1-0.9,0.2c0.5-0.2,1.1-0.7,1.6-1.1c-0.5,0.2-1,0.4-1.4,0.5c-0.4,0.3-0.8,0.6-0.9,0.7
		c-1,0.3-0.5-0.2-0.4-0.3c-0.2,0.1-0.3,0.1-0.5,0.2c-0.1,0-0.2,0.1-0.2,0.1l-0.1-0.1c-0.1-0.2-0.2-0.3-0.3-0.5
		c-0.2-0.4-0.4-0.6-0.6-1.4l0.1,0.5c-0.1-0.3-0.4-1.5-0.4-1.4c0-0.3,0.1-0.6,0.3-0.3l-0.5-1.2c0.1,0.2,0.3,0,0.3,0.1
		c-0.1-0.5-0.4-0.8-0.4-0.5c0-1-0.1-0.8,0-1.6c-0.1-0.3-0.2,0.1-0.3,0.3c-0.1-0.7-0.2-1-0.2-1.4l0,0l0,0c0-0.3,0-0.6-0.2-1.1
		l0.4,0.7L33.7,71c0,0,0,0,0,0c0.2,0.7,0.4,0.6,0.5,0.5c0-0.3-0.1-0.5-0.1-0.8c-0.2-0.5-0.4-1-0.6-1.5c0,0.1,0.3,0.3,0.3,0.2
		c-0.3-0.2-0.3-2.9-0.2-4.2l0,0.2c0,0.1,0.1-0.1,0.1-0.4c0.1-0.3,0.1-0.7,0.1-0.9c0,0.1,0,0.2,0,0.4c0.3-0.9-0.2-1.2,0.1-2
		c-0.2,0.8-0.1,1,0,0.9c0-0.7,0.4-2.2,0.1-1.9c0.1-0.4,0.2-0.8,0.3-0.7c0.1-0.5,0.2-1.1,0.3-1.6c0,0.1,0,0.2,0.2-0.2
		c-0.3,0.9-0.3,1.8-0.5,2.2c0.1,0.1,0.3-0.3,0.3,0.2c0.1-0.9,0.3-1.5,0.3-2.2c0.1-0.6,0.1-1.1,0.2-1.7l0.6-1.4l0-0.1
		c0.1-0.1,0.2-0.1,0.3-0.2c0-0.2,0.1-0.3,0.1-0.4c0,0,0,0,0,0.1c0.1-0.2,0.1-0.3,0.1-0.4c0,0-0.1,0-0.1,0.1c0.1-0.2,0.1-0.1,0.1-0.1
		c0.1,0,0.1,0.3,0.1,0.6l0.1-0.1c0.2-0.7,0.4-1.6,0-1l-0.3,0.5c0.1-0.2,0.2-0.4,0.3-0.5l0.5-0.8c0.3-1,0.3-0.8,0.8-2.1
		c0.1,0,0,0.3,0.1,0.1c0.3-1,1.4-1.9,1.3-2.1c0.4-0.7,0-0.4,0.3-0.8c0,0,0,0.1,0.1,0c0.1-0.2,0.1-0.4,0.2-0.6c0.2-0.2-0.2,0.5,0.2,0
		c0.6-1,0.9-1.5,1.5-2.3c0.8-1.1-0.5,0.3,0.2-0.6c0.2-0.1,0.4-0.1,0.8-0.7c0.2-0.3,0.1-0.3,0.4-0.9l0.1,0.1c0.3-0.5,0.6-0.8,0.7-0.8
		c0.2-0.4,0.5-0.7,0.6-0.8c0.5-0.7-0.7,0.3-0.8,0.4c0.6-0.6,1-1.1,1.4-1.4l-0.5,0.6c1.2-1.1,0.8-1.3,1.6-1.7c-0.4,0.4-0.8,1-0.5,0.8
		l0.5-0.7c0.1,0-0.3,0.4,0,0.1c0.1-0.2,0.4-0.6,0.5-0.8l0-0.1c0.1-0.1,0,0,0,0.1l0,0c0.3-0.4,0.6-0.7,1-1.1c-0.2,0.2-0.2,0.3,0,0.1
		l0.6-0.8c0-0.1,0.1-0.1,0.2-0.3l-0.2,0.3c-0.2,0.2,0.1,0.1,0.4-0.2c0.9-0.9,0.4-1,1.2-1.5c-0.1,0.1-0.1,0.1-0.2,0.2l0.4-0.3
		c-0.2-0.3,2-2.1,1.8-2.4c0.6-0.4,0.1,0-0.4,0.8l0.6-0.5c-0.2,0.2-0.4,0.4-0.6,0.6c0.8-0.6,1.3-1.4,1.6-1.8c0.3-0.2,0,0.4,0.7-0.4
		c1-1.1-0.4,0,0.2-0.6l0.6-0.3c0.8-0.9,1.5-1.4,2.2-2c0.2-0.2,0.2-0.2,0.2-0.3l0,0l0-0.1c0-0.1-0.2,0.1,0.2-0.3l-0.2,0.3
		c0,0,0,0,0,0c0.8-0.6,1.5-1.6,2.1-2c-0.1,0.1,0,0,0.2-0.1c0.2-0.1,0.2-0.1,0.2-0.1l0-0.1l-0.1-0.2l-0.1-0.5
		c0.1,0.3,0.1,0.4,0.2,0.5c0.1,0.1,0.1,0,0.2,0.1c0-0.1,0-0.2,0-0.2c0-0.1,0-0.2-0.1-0.2c0-0.1-0.1-0.3-0.1-0.4
		c0.1,0.2,0.1,0.4,0.1,0.1L59,24.8c0,0.1,0,0.3,0,0.4c-0.1-0.4-0.2-1.1-0.2-1.7c0,0,0.1,0.2,0.2,0.3c0,0.5,0.1,0.7,0.2,0.9
		c-0.2-1,0-0.3,0-0.7c-0.1-0.7-0.3-1-0.3-0.8c-0.1-0.8-0.1-1.1-0.3-1.9l0.2,0.1l-0.1-0.7l0.3,0.6c-0.1-1.5-0.3-0.2-0.4-1.8l0.1,0
		c-0.1-0.6-0.4-0.8-0.3-1.3c-0.2-0.6,0,1-0.2-0.4c0-0.3,0-0.8,0-1.2c-0.1-0.4-0.1,0.4,0,0.6c-0.1-0.5-0.1-0.9-0.1-1.1
		c0-0.3,0-0.4,0-0.7c0-0.5,0.1-0.8-0.2-2.2c0,0.4-0.1,0.1-0.1,0c-0.1-0.1-0.1,0,0.1,1.3c-0.1-0.7-0.2-1.3-0.2-1.8
		c0-0.6-0.1-1-0.3-1.9l0.3,1.2c-0.1-0.4-0.2-1-0.3-1.3l0.2,0.5c-0.1-0.6-0.2-1.1-0.3-1.5c0.6,0.8,1.1,1.7,1.3,1.7
		c-0.1,0,0,0.2,0.3,0.5c0.2,0.3,0.6,0.7,0.8,1c-0.4-0.4-0.8-1-1.2-1.6c-0.4-0.6-0.7-1-0.6-0.7c0.4,0.6,0.5,0.7,0.8,1.2
		c0.2,0.2,0.3,0.3,0.1,0.1c0,0,0-0.1-0.1-0.1c-0.2-0.2-0.4-0.4-0.4-0.4c0.5,0.8,0.8,1.1,1,1.4c0.3,0.3,0.6,0.6,0.9,1l-1-1.4
		c0-0.3,0.4,0.6,0.8,0.8c0.3,0.5,0.5,0.8,0.8,1.1c0.1,0.1,0.2,0.2,0.3,0.4c0.1,0.1,0.2,0.2,0.2,0.3c-0.1-0.1-0.1-0.1-0.2-0.2
		c0.8,1.1,0.8,1.6,1.1,2.1c0.3,0.5,1,1.2,0.8,0.9c0.3,0.3-1.1-1.5-0.5-1c0.2,0.8,1.1,1.3,1.9,2.8c-0.5-0.6,0.1,0.5-0.3,0
		c0.2,0.2,0.3,0.3,0.3,0.4c0.1,0.1,0.1,0.1,0.2,0.2c0.1,0,0.2-0.1,0.3-0.1c0.1,0,0.1,0.1,0.2,0.1c1.1-0.3,0.2-0.2,1.9-0.5
		c-0.5,0.1,0.7,0.1,0.3,0.2c0.5,0,0.9-0.1,1.2-0.2l-0.1,0c1.7-0.2,1.4,0,2.9-0.2l-0.2,0c1-0.2,2.1-0.3,3.3-0.4
		c1.8-0.2,3.5-0.3,5.3-0.5l-1,0c0.2,0,1.3-0.1,2.3-0.2c-0.4,0.2-0.7,0.5-1.1,0.7c0.2-0.1,0.4-0.3,0.6-0.4c-0.3,0.1-0.9,0.4-1.6,0.8
		c0,0,0,0.1,0,0.1l-0.5,0.2c-1,0.6,0.7-0.3-0.3,0.4c-0.6,0.2-1.6,0.9-2.6,1.5c-0.2,0.1-0.4,0.2-0.6,0.4c-0.2,0.1-0.3,0.2-0.5,0.3
		c-0.3,0.2-0.6,0.3-0.8,0.4c-0.3,0.4,1.2-0.7,0.8-0.3c-0.2,0.1-0.3,0.1-0.7,0.4l0.2,0c-2,1.2-2.8,1.6-4.5,2.7l0.1-0.1
		c-0.6,0.4-1,0.6-1.2,0.8c-0.2,0,0.3-0.3,0-0.2c-0.9,0.9-2.3,1.2-2.8,1.8c0-0.1-0.3,0-0.6,0l-1.4,0.9C63.1,28.8,63.3,40,59.6,51.9z
		 M54.3,64.3l-0.1,0.3l-0.1-0.1C54.2,64.4,54.2,64.4,54.3,64.3z M53.1,66.4c-0.6,0.8,0-0.1,0-0.2C53.6,65.6,53.1,66.3,53.1,66.4z
		 M35.5,78.9C35.5,78.9,35.6,79,35.5,78.9L35.5,78.9c0.2,0,0.2,0,0.3,0c0.2-0.1,0.5-0.1,0.3,0c-0.3,0.1-0.5,0.1-0.6,0.2
		C35.5,79,35.5,79,35.5,78.9c-0.1,0.1-0.2,0-0.5-0.7C35.1,77.7,35.2,78.2,35.5,78.9C35.5,78.8,35.5,78.8,35.5,78.9z M35.6,78.9
		c0.1,0,0.2-0.1,0.3-0.1c-0.1,0-0.1,0.1-0.2,0.1C35.7,78.9,35.6,78.9,35.6,78.9z M36.2,17.3c-1.5,0.6,0,0.5-1.6,1.3
		c-0.7-0.2-0.2-0.4,0.7-1.1c0.1-0.1,0.2-0.2,0.4-0.4c-0.1,0.1-0.3,0.3-0.4,0.4C34.9,17.8,36.4,16.9,36.2,17.3z M42.9,43.5l0.4-0.3
		C43.1,43.4,43,43.5,42.9,43.5L42.9,43.5z M48.2,37.6l0.1-0.1l0.2,0L48.2,37.6z M53,32.5c0.2,0.1-0.2,0.2-0.6,0.6
		C52.6,32.9,52.8,32.7,53,32.5z M52.5,9.1l0.2-0.8L52.9,9L52.5,9.1z M75.6,9.4c1.4,0.4-0.2,0.2-0.3,0.3C73.4,9.5,75.4,9.5,75.6,9.4z
		 M74.1,8.2l1.6,0.1c0.2,0.2-0.4,0.1-0.8,0.2C74.3,8.4,73.9,8.3,74.1,8.2z M79.3,10.4l0.2-0.4c0.2,0.2,0.2,0.3,0.6,0.4L79.3,10.4z
		 M66.3,32.1C66.3,32.1,66.3,32.1,66.3,32.1L66.3,32.1c-0.1,0.1-0.1,0.2-0.1,0.2c-0.1,0.2-0.2,0.5-0.1,0.3c0.1-0.3,0.1-0.5,0.2-0.6
		c0-0.1,0.1,0,0.1-0.1c0,0,0.1-0.1,0.9,0.1C67.7,32.3,67.2,32.2,66.3,32.1C66.5,32.1,66.4,32.1,66.3,32.1z M66.3,32.2
		c0,0.1,0,0.2-0.1,0.3c0-0.1,0-0.2,0-0.2C66.3,32.2,66.3,32.2,66.3,32.2z M92.9,14.6c-0.3-0.1-0.6-0.3-1-0.5
		c-0.2-0.1-0.4-0.1-0.4-0.1l-1.2-0.7c0-0.1,0.9,0.4,1.7,0.8C92.2,14.2,92.7,14.5,92.9,14.6z M91.9,13.8c0-0.1,0.2-0.1,0.3,0
		C92.1,13.7,92,13.7,91.9,13.8z M93.4,56.7c-0.1-0.3-0.1-0.4-0.1-0.5l0.1,0L93.4,56.7z M93.3,15.3l0.8,0.5l0.3,0.3L93.3,15.3z
		 M97.6,17c-0.7-0.5-1.5-0.8-1.4-1.1c0.4,0.2,0.9,0.4,1.2,0.6c0.3,0.2,0.4,0.4,0.1,0.5L97.6,17z M97.8,70.4
		c-0.2,0.1-0.1-0.3-0.2-0.9C97.7,69.8,97.7,70.2,97.8,70.4z M97.8,17.1c0.4,0.3,0.9,0.4,0.7,0.5C98.2,17.4,98,17.3,97.8,17.1z
		 M96.2,16.6l0.1,0.5l-0.7-0.5L96.2,16.6z M95.8,63.9l-0.1,0.2l0.1-0.3L95.8,63.9z M103.9,23l-0.1,0.2c-0.2-0.1-0.3-0.3-0.5-0.4
		C102.8,22.2,103.3,22.5,103.9,23z M108.4,26.8c0.5,0.5,1.1,1,1.5,1.6c-0.2,0-0.2,0.3-0.9-0.7l-0.1,0.1L108.4,26.8z M108.6,24.5
		c0.6,0.4,1.3,0.8,1.9,1.5c-0.5-0.3,0.3,0.7-0.3,0.5C109.7,25.6,109.2,25,108.6,24.5c-0.4-0.2-0.7-0.5-1-0.7
		C108,24,108.3,24.2,108.6,24.5z M102.7,19.1l-0.4,0.1l-0.9-0.5C101.8,18.8,102.3,18.9,102.7,19.1z M100.4,19
		c0.3,0.3,0.3,0.5,0.5,0.7c0.2,0.2,0.4,0.4,1.1,1c1,0.6-0.7-1.3-1-1.7c1.2,0.7,1.2,0.6,1.4,0.5l0-0.1l0.1,0.1c0.1,0,0.3,0,1.1,0.5
		c0.5,0.7,0.7,1.1,1.2,1.6c0.7,0.6,1.4,1.1,2,1.7c0,0,0,0,0-0.1c-0.2-0.3-0.4-0.6-0.6-0.8c0.1,0,0.5,0.5,0.6,0.8
		c0.2,0.4,0.5,0.7,0.8,1.1c0.5,0.5,1,1,1.5,1.3c0.6,0.6,0.2,0.5,0.1,0.5c0.3,0.4,0.7,0.7,1,1c0.2,0.1,0.4,0.3,0.6,0.5
		c0-0.1,0-0.1,0.1,0.1l-0.1-0.1c0,0.1,0,0.1,0.1,0.2c0,0,0.1,0.1,0.1,0.1c0,0-0.1,0-0.1-0.1c-0.2-0.2-0.4-0.4-0.7-0.7
		c-0.3-0.2-0.6-0.4-0.9-0.9c-0.1-0.1-0.1-0.1,0-0.1c-0.5-0.6-1-1.2-1.5-1.8c-0.3-0.3-0.6-0.7-1-1c1.1,1.5-1.3-0.8,0.5,1.1
		c-0.8-0.6-0.6-0.1-1.7-1.2c-0.4-0.8,0.7,0,1.2,0.1c-0.9-0.9-1.5-1.3-1.8-1.7l-0.4-0.3l0.2,0.1l-2-1.9l-0.1,0
		c0.5,1.2,0.5,2.5-0.6,1.8c-0.2-0.3-0.4-0.5-0.6-0.8c-0.2-0.2-0.5-0.4-0.7-0.5c-0.5-0.3-0.9-0.4-1-0.3c-0.3-0.3,0.2-0.1,0.3-0.2
		l-1.3-0.8C98.3,18.1,100.8,19.8,100.4,19z M100.2,17.3l-0.3,0.2l-0.5-0.5L100.2,17.3z M95.8,14.2c-0.4-0.2-0.2,0-0.2,0.1
		c-0.2-0.2-0.4-0.4-1-0.7L95.8,14.2z M87.9,10.3c0.5,0.1,1.2,0.3,0.9,0.4c-0.2-0.2-0.2,0.3-0.6,0c-0.6-0.2-0.8-0.3-0.8-0.4
		C87.4,10.3,87.7,10.3,87.9,10.3z M122.5,73.6c0.1-0.4,0.1-0.8,0.1-1.1C122.6,73,122.5,73.4,122.5,73.6c-0.1,0.8-0.2,1.6,0.2,0.5
		c-0.3,1-0.5,2-0.9,2.9c-0.3,1-0.6,1.9-0.9,2.9c-0.5,2-1.3,3.9-1.9,5.8c-1.4,3.8-3.2,7.5-5.6,10.7c-0.2,0.5,0.1,0.3,0.3,0.2
		c-0.6,0.5-0.7,0.8-0.8,1.1c-0.1,0.3,0,0.5-0.2,0.9l-1.8,1.3c-0.4,0.8,0.2,0.4,0.3,0.5c-1.1,1.7-2.7,3.1-4,4.4c-0.3,0.3-0.7,0.7-1,1
		c-0.3,0.3-0.7,0.6-1,0.9c-0.7,0.6-1.3,1.2-1.8,1.8c-0.9,0.5-0.2-0.6-1.2,0.3c0.9-0.4,0.3,0.4-0.6,1.1c-0.8,0.7-1.8,1.4-1.1,1.3
		c-0.8,0.1-1.8,0.8-2.6,1.4c-0.8,0.5-1.6,0.8-1.6,0.2c-1.4,0.8-0.9,1.1-0.5,0.9c-0.8,0.5-1.6,0.9-2.3,1.4c-0.3,0.2-0.7,0.5-1,0.7
		c-0.3,0.2-0.7,0.4-1,0.7c-0.5,0.1-2.4,1.2-4.5,2.1c-2.1,0.8-4.4,1.6-5.3,1.4c1.3,0.2,0,0.3-1,0.7l1.1,0.2l-2.5,0.6
		c-0.5,0.2-0.6,0.2-0.6,0.1c-0.4,0.1,0-0.3-1-0.1c-0.4,0.1-0.7,0.2-1,0.3c-0.3,0.1-0.4,0.1-0.6,0.2c-0.3,0.1-0.6,0.3-1,0.5l0.3,0
		l-1.2,0.2c-0.8,0.1,2.9-0.9,0.1-0.7c0,0.1-1.6,0.9-2.4,0.7c1.4-0.2,1.2-0.5,0.7-0.5c-0.7,0.1-1.3,0.2-2,0.2
		c0.2,0.2,0.5,0.3,0.7,0.5c-5.8,0.5-11.8,0-17.8-1.1c0.2-0.4-4.2-1.1-3.5-1.6l0.2,0.1c1.5,0.3-0.3-0.6-1.5-0.9
		c1.2,0.5-2.4,0.1,0.6,1c-0.8-0.1-1.6-0.1-2.4-0.3c-0.8,0.4-2.4-0.2-4.1-1c-0.9-0.4-1.7-1-2.6-1.4c-0.9-0.5-1.8-0.9-2.7-1.2
		c0.3,0.1,0.4,0,0.4,0c-0.8-0.2-1.5-0.7-2.3-1.1c-0.7-0.5-1.4-0.9-2-1.4c-0.6-0.5-1.2-0.8-1.6-1.2c-0.4-0.4-0.7-0.6-0.9-0.7l0-0.5
		c-2.5-1.2-3-1.3-5.2-3.7c0.1,0,0.4,0.2,0.1-0.2c-0.4-0.2-0.8-0.3-1.3-0.7c-0.5-0.3-1.1-0.8-1.9-1.7l0.1,0l-2.4-2.6
		c0.2-0.2,0-0.5-0.3-1c-0.4-0.4-0.9-1-1.5-1.6c-1.1-1.2-2.3-2.6-2.1-3.4c-0.6-0.4-2.1-2.6-2.8-3.5c-0.1,0-0.2-0.1-0.5-0.4
		c0-0.1,0.2,0.1,0.5,0.4c0,0,0-0.1,0-0.3c-0.7-0.4-1-1.4-1.3-2.3c-0.3-1-0.6-2-1-2.6c-0.6-0.8-0.6-0.4-0.5,0.1
		c0-0.2-0.1-0.5-0.2-0.8c-0.1-0.3-0.2-0.6-0.3-0.8C10,86.1,9.7,85.5,9.4,85c-0.6-1.1-1.1-2-1.2-2.4c-0.4-1.4,0.3-0.6,0.4-1.1
		c-0.6-2-0.9,0.6-1.2-2.3c0.1,0.3,0.3,0.9,0.3,0.7c-0.1-0.5,0.1-1.4,0.2-2.2c0.1-0.8,0.2-1.6,0-2.1c0,0.2-0.1,0.5-0.1,0.7
		c-0.6-1.9,0.2-4.7-0.6-4.9L7,71.7c0-0.4,0-0.8,0-1c0-0.3,0-0.5,0-0.7c0-0.3,0-0.5-0.1-0.7c-0.1-0.4-0.1-0.7,0-2.5l0.1,0
		c-0.1-1.5,0.2-2.3-0.3-3l-0.1,0.5c0-1.9,0.1-2,0.2-3.9c0-0.2-0.1-1.2,0.1-1.4c-0.5-0.1,0.4-4.4,0.6-5.2c-0.2,1.5,0.2,0.8,0.4,0.4
		c-0.1-0.5-0.2-0.9-0.1-1.3c0.1-0.4,0.3-0.8,0.5-1.4c-0.5-0.3-1.1-0.7-0.5-3.1c0,0.4-0.1,1,0.1,0.8C8,49,8,48.5,8,48.3
		c0.2-0.2,0.1,0.6,0.3,0.4c-0.2-1.8,0.8-2.7,1.4-5c-0.1,0.8,0.2,0.2,0.5,0c-0.3-0.2,0.1-0.9,0.5-1.5c0.4-0.6,0.7-1,0.1-0.8
		c2.3-4.1,5.7-10.4,7.4-11.4c0.5-0.2,0.9-1.5,1.4-2.2l0.2,0.3c1.1-2,1-1.4,2.4-3.8c-0.5,1.1-0.1,0.8,0.9,0.2l0.4-0.9l0.5-0.8
		l0.6,0.1c0.4-0.6,1.1-1.1,1.7-1.6c0.1-0.4,0.6-1,1.1-1.6c0.7-0.6,1.4-1.3,1.5-1.5c1,0,1.7-1.5,2.5-1.3c0.2-0.2,0.4-0.5,0.7-0.8
		c-0.5,0-0.8-0.2-0.1-0.5c0.1,0,0.1-0.1,0.1-0.1l-0.4-0.1c-0.3-0.2,0.9-0.4,1.8-0.7c0.3-0.1,0.6-0.2,0.9-0.3
		c0.1-0.1,0.2-0.1,0.2-0.1c0,0-0.1,0.1-0.1,0.1c0.4-0.2,0.9-0.4,1.4-0.8c0.6-0.2,1.3-0.5,1.9-0.9c0.6-0.3,1.3-0.7,1.9-1.1
		c0.6-0.4,1.3-0.8,2-1.1c0.7-0.3,1.4-0.5,2.2-0.5c-0.4,0.1-1,0.3-1.1,0.4c2.3-0.9,4.7-1.3,6.1-1.8L48.8,8c1.7-0.6,3-1.1,4.5-1.3
		l0-0.4c1.1-0.1,2.7-0.5,4.2-0.7c0.4-0.1,0.8-0.1,1.1-0.2c0.4,0,0.7,0,1,0c0.6,0,1.2,0.1,1.5,0.3c0.2-0.2,1-0.2,1.8-0.2
		c0.8,0,1.7,0,2.3,0l0.3,0.3c1.6,0.2,2.5,0.1,3.5,0.1c-0.1,0-0.3-0.1-0.4-0.1c0.8-0.2,1.6-0.1,2.4,0.2c0.6,0.1,1.2,0.3,2,0.5
		c-0.3,0.2-1-0.2-2-0.5c-0.7-0.1-1.3-0.1-1.9-0.1c1.6,0.3,3.1,0.6,4.5,0.8c1.5,0.2,2.9,0.2,4.2,0.6l0,0.1l2.8,0.5
		c-0.8,0.1,0.6,0,1.4,0.2c0.9,0.1,2.2,0.7,3.2,1.3l1.7,0.6c-1.9-0.5,0,0.4,0,0.8c0.4,0,0.8,0.1,1.1,0.2c0.3,0.3-0.8-0.1,0,0.4
		c0.8,0.2,2.8,1.1,3.6,1.1c-0.1-0.1-0.3-0.3-0.5-0.5c-0.1,0-0.1,0,0,0c0,0,0,0-0.1,0c-0.4-0.2-0.6-0.3-0.7-0.4
		c-0.3-0.2-0.6-0.3-0.9-0.5c0.4,0.2,0.6,0.3,0.8,0.4c0.1,0,0.6,0.2,0,0c0,0,0,0,0.1,0.1c0.2,0.1,0.5,0.3,0.7,0.4c0,0,0,0,0.1,0.1
		c0.1,0,0.3,0,0.3,0c-0.1-0.1-0.3-0.2-0.5-0.3c0.5,0.2,0.6,0.2,0.5,0.3c1.3,0.7,0.8,0.3,0.9,0.2c0.6,0.6,1.1,0.9,1.6,1.3
		c0.5,0.3,0.9,0.7,1.3,1.3c-1.1-1.5,3.2,1.9,2.6,0.8c0.7,1.1,0.7,0.5,1,1.3c-1.2-1.2-3-1.6-4.3-2.1l1,1c-1,0.1-2.4-1.7-3.2-2
		c0.5,0.1,1.5,0.9,1.4,1l-0.1-0.6c-0.4-0.3-0.8-0.5-1.1-0.7c-0.4-0.2-0.8-0.3-1.1-0.5c-0.7-0.3-1.4-0.4-2.1-0.6
		c1.1,0.7-1.5-0.4-0.8,0.3l0.9,0.4c0.3,0.3-0.6,0.1-1.1-0.1C85.5,11.3,80,9.9,79,9.3c0.6,0.3,1.7,0.5,2.3,0.5L80,9.3
		c0.6,0.1,1.1,0.4,1.6,0.6c0.5,0.3,1.2,0.6,2,0.8c-0.2-0.4,1.2-0.3,0-1.2c-0.8-0.4-1.3-0.6-1.8-0.7c-0.5-0.1-0.9-0.1-1.3-0.1
		c-0.8,0-1.7,0.1-3.7-0.5c-0.2,0,0-0.1,0.1-0.2c0-0.1-0.2-0.3-1.3-0.4c-2.8-0.1-4.8,0.2-4.9,0.9c1.1,0,3.4,0,3.7,0.5
		c-1.1,0-3.1-0.2-3.2,0.1c-1.1-0.7,2.1,0.2,0.7-0.5c-0.8-0.1-1.1,0-1.5,0.1c0.5-0.2-0.7-0.4-0.9-0.5c-1.3-0.1-2.3-0.2-3.3-0.3
		c-0.5-0.1-1-0.1-1.6-0.2c-0.6,0-1.2,0-1.9,0c0.1,0,0.1,0.1-0.1,0c0,0,0,0,0.1,0c-0.1-0.1-0.5-0.2-0.4-0.4c-1.4,0.2-3.2,1.1-2.7,1.4
		c-0.8,0-1.2,0.1-1.6,0.1c-0.4,0-0.7,0-1.4,0.2c2.2,0.2-0.4,0-0.6,0.5c-1.3,0.3-0.5-0.2-1.1-0.2c-0.2,0.1-0.7,0.3-0.7,0.5
		c0.2,0,0.4,0.1,0.8,0.1c-0.6,0.1-0.8,0-0.8-0.1c-0.9-0.3,1.4-1.2,0.4-1.5c-0.4-0.1-1.3-0.2-2.2-0.1c-0.9,0.1-1.7,0.1-1.8,0.1
		c-0.5,0.6,0.1,2.3,1.2,2.6c0,0.3-1.3,0-1.9,0.1c-0.9,0-1.5,0.2-2.1,0.5c-0.5,0.3-1,0.7-1.7,0.8l0.9-0.6c-0.3,0-2.2,0.8-2.4,1.1
		c-0.1-0.1,0.7-1.2,0-1.1c-0.6,0.2-1.2,0.5-1.7,0.7c-0.5,0.3-0.9,0.7-1.3,1c-0.7,0.7-1.1,1.2-0.9,1.4c1.1-0.7,2.2-1.5,3.4-2.1
		c0.1,0.2-0.5,0.5-1.1,0.9c-0.6,0.4-1.1,0.8-1,1l-3.3,1.4c0.4-0.2,1.6-0.9,1-0.9c-1.4,0.7-0.8,0.3-1.8,0.6c0.7-0.6,1.6-1.6,2.5-2.6
		c0.9-1,1.7-2,2.2-2.4c-0.6,0.3-1.1,0.7-1.7,1l-0.5,0c-1.1,0.7-1.9,1.7-2.6,2.5c-0.6,0.9-0.9,1.7-1.1,2.1c-1.2,0.6-1.3-0.4-1.1-0.7
		c-2.4,1.4-1.7,2.4-4,4l0.9-0.5c-0.5,0.5-2.5,1.7-2.2,1.7c-0.6,0.1-1.3,0-0.9-0.5c-0.2,0.4-0.5,0.7-0.7,1.1l-0.6,1.1
		c0.2-0.3-0.4-0.7-0.4-0.9c-0.8,0.7-0.7,1.8-0.2,1.4c-1.8,0.9-1.2,0.8-2.8,1.4c-0.4,0.4,0.6,0.5,0.9,0.3c-0.4,0.5-0.7,0.9-1,1.2
		c-0.3,0.3-0.5,0.5-0.8,0.7c0,0,0,0,0,0.1l0,0c-0.5,0.4-0.9,0.8-1.2,1.7l0-1.8l1.2,0.1c0,0,0,0,0.1-0.1c1.2-1.8-0.8-1.5-0.9-2.2
		c-0.5,1.7-1.1,3.3-1.5,4.9c0-0.2-0.3-0.9-0.4-1c0.1,0.3-0.6,1.6-1.5,3c-0.5,0.7-1,1.4-1.5,2.1c-0.4,0.7-0.9,1.4-1.2,2l0.2-0.3
		c0.1-0.6-1.2,1.2-1.5,2.1c0-0.2,0.1-0.4,0.3-0.7c-1.4,1.2-0.2,2.4-1.5,3.7c0.7-1.4,0.6-1.8,0.4-1.8c-0.4,1.3-1.9,3.9-0.9,3.6
		c-0.5,0.7-0.7,1.4-1,1.2l-0.7,3.1c0-0.2-0.1-0.5-0.5,0.3c0.7-1.6,0.6-3.5,1.4-4.2c-0.4-0.2-0.9,0.3-0.9-0.6
		c-0.6,1.7-0.8,3.1-0.9,4.2c-0.1,0.6-0.1,1.2-0.1,1.7c0,0.6,0,1.1,0,1.7l-1.1,2.8l0.2,0.2l-0.7,0.4c0,0.4,0.1,0.7,0,0.7
		c-0.1,0.1-0.1,0-0.2-0.2c0,0.3,0,0.6,0,0.8c0.1,0,0.1,0,0.2-0.1c-0.1,0.3-0.2,0.3-0.2,0.1c-0.3,0.1-0.5-0.5-0.7-1.2
		c0,0.1-0.1,0.2-0.1,0.2c0.1,1.5,0.3,3.2,0.8,2l0.4-1.1c-0.1,0.5-0.3,0.9-0.4,1.1L9,57.2c0.2,2.1,0.2,1.8,0.4,4.3
		c-0.2,0.1-0.3-0.6-0.5-0.1c0.3,0.9,0,2-0.2,3c-0.2,0.9-0.3,1.7,0,1.9c0.2,1.5,0.5,0.6,0.7,1.5c-0.1,0-0.2-0.1-0.2,0.2L9.6,69
		c-0.1,0.5-0.3-1-0.4,0.3c0.2,1.1,0.5,1.9,0.6,2.7c0.2,0.8,0.3,1.5,0.3,2.4c0.5,2.5,0.6-1.2,0.8,0.9c-0.3,0.4-0.6,0.7-0.3,2
		c0.4,0.6,0.6,0.5,1,1.6L11.3,79c0.3,1.1,0.6,1.9,0.3,2c0.5,0.8,0.7,1.4,0.8,1.9c0.8,1.5,0.5-1.5,0.5-1.9c0.2,1.6,0.8,2.6,0.6,3.7
		l-0.6-1.3c0.3,1.6,0.7,2.2,1,2.7c0.3,0.4,0.5,0.7,0.4,1.6c-0.2-0.5-0.5-1-0.8-1.3C13.2,86,13,85.9,13,86.3c0.3,0.5,0.6,0.9,0.9,1.3
		c0,0.2-0.5-0.8-0.3-0.1c0.3,0.4,0.9,1.1,1.2,1.4l0.2,0c0.1,0.2,0,0.1-0.2,0l0,0c0.4,0.8,0.8,1.7,1.3,2.5c-0.3-0.5-0.5-0.5-0.2,0
		l1.2,1.5c0.1,0.1,0.2,0.2,0.4,0.5l-0.4-0.5c-0.4-0.4-0.2,0.1,0.1,0.9c1.1,2.1,1.8,1.1,2.5,2.8c-0.2-0.2-0.2-0.2-0.4-0.4l0.4,0.9
		c0.3-0.1,0.7,0.2,1.2,0.7c0.3-0.7,0.7-1.3,0.6-1.5c0.1,0.1,0.2-0.2,0.3-0.5c0.1-0.4,0.3-0.9,0.5-1.2c-0.1,0.5-0.5,1.2-0.8,1.9
		c-0.3,0.6-0.5,1.1-0.3,0.9c0.3-0.6,0.3-0.8,0.6-1.3c0.1-0.2,0.1-0.4,0.1-0.1c0,0,0,0.1-0.1,0.1c-0.1,0.2-0.2,0.5-0.1,0.5
		c0.4-0.8,0.6-1.2,0.7-1.6c0.1-0.4,0.2-0.8,0.4-1.3l-0.7,1.6c-0.3,0.1,0.3-0.7,0.3-1.1c0.3-0.5,0.4-0.8,0.6-1.2
		c0.1-0.1,0.1-0.3,0.2-0.4c0.1-0.1,0.1-0.2,0.2-0.4c-0.1,0.1,0,0.1-0.1,0.3c0.6-1.3,1-1.5,1.3-2c0.3-0.5,0.6-1.5,0.4-1.2
		c0.1-0.4-0.7,1.7-0.6,0.9c0.6-0.6,0.6-1.6,1.5-3.1c-0.2,0.7,0.3-0.3,0.1,0.3c0.1-0.2,0.2-0.4,0.2-0.5c0-0.1,0-0.2,0.1-0.2
		c-0.1-0.1-0.1-0.1-0.2-0.2c0-0.1,0-0.1,0-0.2c-0.8-0.8-0.3-0.1-1.3-1.4c0.4,0.4-0.3-0.6,0-0.3c-0.3-0.4-0.5-0.7-0.8-1l0,0
		c-1-1.3-0.7-1.2-1.7-2.4l0,0.2c-0.6-0.8-1.3-1.7-2-2.6c-1-1.5-2-2.9-3.1-4.3l0.6,0.9c-0.1-0.2-0.8-1.1-1.4-1.9
		c0.4,0.2,0.8,0.4,1.1,0.6c0.1,0,0.2,0.1,0.2,0.1l-0.2-0.1c-0.2-0.1-0.4-0.2-0.6-0.3c0.2,0.2,0.8,0.6,1.5,1c0,0,0-0.1,0-0.1l0.4,0.3
		c1,0.5-0.6-0.4,0.5,0.1c0.5,0.4,1.5,1,2.6,1.5c0.2,0.1,0.4,0.2,0.6,0.3c0.2,0.1,0.4,0.2,0.5,0.3c0.3,0.2,0.6,0.3,0.7,0.5
		c0.5,0.1-1.3-0.7-0.7-0.6c0.2,0.1,0.3,0.2,0.7,0.5l-0.1-0.2c2,1.1,2.7,1.6,4.6,2.5l-0.1,0c0.6,0.4,1,0.5,1.3,0.6
		c0.1,0.1-0.4-0.1-0.1,0.1c1.3,0.3,2.2,1.4,3,1.5c-0.1,0.1,0.1,0.3,0.4,0.5l1.4,0.8c0,0,9.7-5.7,21.8-8.5c0,0,0,0,0,0c0,0,0,0,0,0
		c0.3-0.1,0.7-0.2,1-0.2c0,0,0,0,0,0c0,0,0,0,0.1,0c0.4-0.1,0.8-0.2,1.2-0.2c0.1,0,0.2-0.1,0.2-0.1c0.2,0,0,0.1,0,0.1
		c0,0,0.1,0,0.1,0l0.6-0.2c0,0,0,0,0,0.1c0.9-0.2,1.9-0.3,2.8-0.4l-0.4,0l-0.2,0c0.2,0,0.4,0,0.6,0c0.8-0.1,1.6-0.2,2.4-0.2
		c0.1,0,0.4-0.1,0.5-0.1c1.3,0,3.4-0.1,4.4,0c1.4,0,2.9,0.2,4.3,0.4c0.2,0,0.3-0.1,0.3-0.2c-0.6-0.1-1.7,0-1.9-0.2
		c0.6,0,1.6,0.1,1.6,0c0.6,0.3-1.1-0.1-0.3,0.1c0.4,0.1,0.6,0,0.8,0c-0.3,0,0.3,0.2,0.4,0.2c1.3,0.2,2,0.5,3.3,0.8c0,0-0.1,0,0,0
		l0,0c0,0,0,0,0,0c0.3,0.1,0.6,0.2,0.9,0.3c0.4,0,0.8,0,0.6-0.1c0.8,0.2,0.8,0.3,1.4,0.5c-0.9-0.6,0.2,0.1,0.4,0
		c0.7,0.2,0.2,0.2,0.5,0.3c0.1,0,0.4,0.1,0.4,0c-0.1-0.1-0.2-0.1-0.3-0.2c0.3,0.1,0.4,0.2,0.3,0.2c0.3,0.2-0.5,0.1-0.6,0.2
		c0.3,0.1,0.6,0.3,1,0.4l0-0.1l0.2,0.1l-0.1,0c0.3,0.1,0.6,0.3,0.9,0.5c0.1-0.2,0.1-0.5-0.1-0.7c0.1-0.1,0.5,0.4,0.8,0.6
		c0.7,0.5,1.2,0.6,1.8,1l-0.5-0.2c0.1,0.1,1,0.6,1.2,0.7c0,0.1-0.6-0.1-0.4,0.2c1.1,0.8,2.2,1.3,2.3,1.1l-1.7-1.1
		c0-0.2,1.2,0.8,1.3,0.6c0.5,0.4,1,0.8,1.4,1.2c-0.2-0.2-0.7-0.6-0.6-0.4c0.6,0.5,0.3,0.3,0.6,0.7c-0.4-0.3-1.1-0.6-1.8-0.9
		c0.4,0.3,0.8,0.6,1.2,1c0.5,0.2,0.9,0.4,1.1,0.4c0.7,0.7,0.1,0.6,0,0.5c0.1,0.1,0.3,0.2,0.4,0.3c0.1,0,0.1,0.1,0.2,0.1l-0.1,0.1
		c-0.1,0.2-0.2,0.4-0.3,0.6c-0.2,0.4-0.3,0.7-0.9,1.2l0.4-0.3c-0.2,0.3-1.1,1.1-1,1c-0.3,0.1-0.6,0.2-0.4-0.1L88,85.8
		c0.1-0.1-0.1-0.2-0.1-0.3c-0.4,0.3-0.5,0.8-0.2,0.6c-0.9,0.5-0.6,0.4-1.4,0.8c-0.2,0.2,0.2,0.2,0.4,0.1c-0.5,0.4-0.8,0.7-1.1,0.8
		l0,0l0,0c-0.3,0.2-0.5,0.3-0.8,0.7l0.4-0.7l0.5,0.1c0,0,0,0,0,0c0.6-0.5,0.3-0.6,0.1-0.7c-0.2,0.2-0.4,0.3-0.6,0.5
		c-0.3,0.4-0.7,0.8-1,1.3c0-0.1,0.1-0.4,0-0.4c0,0.3-2.4,1.7-3.6,2.2l0.2-0.1c0.1-0.1-0.1,0-0.4,0.1c-0.3,0.1-0.7,0.3-0.9,0.4
		c0.1-0.1,0.2-0.1,0.3-0.2c-0.9,0.2-0.9,0.8-1.8,0.9c0.8-0.3,0.9-0.4,0.8-0.5c-0.6,0.4-2.1,0.7-1.7,0.9c-0.4,0.1-0.8,0.3-0.8,0.1
		c-0.5,0.2-1,0.4-1.5,0.6c0.1-0.1,0.2-0.2-0.3,0c0.9-0.2,1.7-0.6,2.2-0.7c0-0.2-0.4-0.1,0-0.4c-0.8,0.4-1.5,0.6-2,0.8
		c-0.6,0.3-1,0.5-1.6,0.7l-1.6,0.2l-0.1,0.1c-0.1,0-0.2-0.1-0.3-0.1c-0.2,0.1-0.3,0.1-0.4,0.1c0,0,0,0,0.1-0.1
		c-0.2,0-0.3,0.1-0.4,0.1c0,0,0,0,0.1,0.1c-0.2,0-0.2,0-0.1-0.1c-0.1-0.1,0.2-0.2,0.5-0.3l-0.1,0c-0.7,0.2-1.6,0.4-0.9,0.5l0.6,0
		c-0.3,0-0.5,0-0.6,0l-0.9,0c-1.1,0.3-0.9,0.2-2.2,0.4c-0.1-0.1,0.3-0.1,0-0.2c-1,0.3-2.3-0.3-2.5-0.1c-0.8,0-0.3,0.1-0.8,0.2
		c0,0,0.1-0.1-0.1-0.1c-0.2,0-0.4,0.1-0.6,0.1c-0.2-0.1,0.5,0-0.1-0.2c-1.1,0-1.8,0-2.7-0.1c-1.3-0.1,0.5,0.3-0.6,0.2
		c-0.2-0.1-0.3-0.3-1-0.4c-0.4,0-0.3,0.1-1,0.1l0.1-0.2c-0.6-0.1-1-0.1-1-0.2c-0.5,0-0.8-0.1-1-0.1c-0.9-0.1,0.6,0.4,0.8,0.5
		c-0.8-0.3-1.4-0.3-1.9-0.6l0.8,0.1c-1.6-0.5-1.6-0.1-2.2-0.5c0.5,0.1,1.2,0.2,0.9,0l-0.8-0.1c-0.1-0.1,0.5,0.1,0.1-0.1
		c-0.2,0-0.7,0-0.9,0l-0.1,0c-0.1,0,0,0,0.1,0l0,0c-0.5-0.1-1-0.2-1.4-0.3c0.3,0.1,0.3,0,0.1,0l-1-0.1c-0.1,0-0.2,0-0.3,0l0.3,0
		c0.3,0,0-0.1-0.4-0.2c-1.2-0.3-1,0.1-1.9-0.3c0.1,0,0.2,0,0.3,0.1l-0.5-0.2c-0.2,0.3-2.8-0.7-3-0.4c-0.6-0.3,0-0.1,0.9,0l-0.7-0.3
		c0.3,0.1,0.5,0.2,0.9,0.2c-0.9-0.4-1.8-0.5-2.4-0.5c-0.3-0.2,0.4-0.2-0.7-0.4c-1.5-0.4,0.2,0.3-0.7,0.1l-0.6-0.4
		c-1.1-0.2-1.9-0.6-2.9-0.9c-0.2-0.1-0.3-0.1-0.4-0.1l0,0l-0.1,0c-0.1,0,0.2,0.2-0.4,0l0.4,0c0,0,0,0,0,0c-1-0.4-2.1-0.5-2.8-0.8
		c0.1,0,0,0-0.1-0.1c-0.2-0.1-0.1-0.1-0.2-0.1l-0.1,0l-0.1,0.1L34.2,88c0.2-0.2,0.3-0.3,0.4-0.4c0-0.1,0-0.1,0-0.2
		c-0.1,0.1-0.1,0.1-0.2,0.1c-0.1,0.1-0.1,0.1-0.2,0.2c-0.1,0.1-0.2,0.2-0.3,0.3c0.1-0.1,0.2-0.3,0-0.2l-1.1,1c0.1,0,0.2-0.1,0.3-0.2
		c-0.3,0.2-0.9,0.8-1.3,1c0-0.1,0.1-0.2,0.1-0.3c0.4-0.2,0.6-0.4,0.7-0.6c-0.8,0.6-0.2,0.1-0.6,0.4c-0.6,0.4-0.7,0.7-0.5,0.7
		c-0.7,0.5-0.9,0.6-1.5,1.2l0-0.2l-0.6,0.5l0.4-0.5c-1.2,0.8-0.1,0.4-1.4,1.3l-0.1-0.1c-0.5,0.4-0.5,0.7-1,0.9
		c-0.4,0.4,0.9-0.5-0.2,0.4c-0.2,0.1-0.7,0.4-1,0.6c-0.3,0.3,0.2,0,0.4-0.2c-0.3,0.3-0.6,0.5-0.8,0.6c-0.2,0.1-0.4,0.2-0.6,0.3
		c-0.4,0.2-0.7,0.3-1.8,1.3c0.4-0.2,0.2,0,0.1,0.1c-0.1,0.1,0,0.1,1.1-0.7c-0.5,0.4-1,0.8-1.5,1.1c-0.5,0.3-0.9,0.6-1.5,1.2l0.9-0.9
		c-0.3,0.2-0.8,0.7-1,0.9l0.3-0.4c-0.3,0.3-0.5,0.5-0.8,0.7c0.3,0.3,0.6,0.7,0.9,1.1c0.4,0.6,0.9,1,1.3,1.4c0.4,0.3,0.8,0.5,1,0.4
		c0.6,1.3-0.1,0.2-1.6-0.7l0.7,1.3c-0.4-0.4-0.7-0.8-1.2-1.2c0.9,1.7,2.6,2.6,3.4,3.2c0.4,0.6-1,0.2,0.7,1.4
		c2.3,1.8,0.1-0.9,1.5,0.2l0.6,1.2c0.5,0.3,0.9,0.6,1.3,0.9c0.4,0.3,0.8,0.6,1.1,0.9c0.7,0.6,1.4,1.2,2.1,1.8
		c0.4,0.2,0.6,0.3,0.7,0.3l0,0l0.1,0c0.2-0.1-0.1-0.5,0.8,0.1c-0.3,0-0.5-0.1-0.8-0.1c0,0,0,0-0.1,0c1.5,1.3,3.8,1.7,5,2.7
		c-0.4-0.1,0.6,0.7,0.7,0.9l2.6,0.9c-1.1-0.4-1.2-0.1-1.5,0.1c0.8,0.3,1.2,0.4,1.8,0.6c-0.4-0.1-0.7-0.1-0.4,0.2l1.4,0.4
		c0.5,0.1,1,0.2,1.4,0.3c-0.1-0.1-0.4-0.2-0.7-0.3c0.7,0.2,2.2,0.6,3.1,1.2c-0.1,0.1-0.5,0.1-0.6,0.1c-0.7-0.6-1.2-0.5-1.8-0.5
		c1.9,0.6,0.4,0.2,1.3,0.8c1.3,0.5,2,0.3,1.7-0.1c0.7,0.3,1.2,0.5,1.7,0.6c0.5,0.1,1,0.2,1.8,0.3l-0.4,0.3l1.5,0.2l-1.3,0.2
		c1.4,0.5,1.5,0.4,1.7,0.2c0.1-0.1,0.2-0.1,0.5-0.1c0.1,0,0.3,0,0.6,0.1c0.2,0,0.5,0.1,0.9,0.2l-0.1,0.4c1.2,0,1.7-0.5,2.6,0.1
		c1.2,0-1.9-0.8,0.8-0.5c0.2,0.1,0.6,0.3,1,0.4c0.4,0.1,0.9,0.2,1.3,0.2c0.9-0.1-0.6-0.4-1.2-0.5c2.1,0.1,2.7,0.4,3.3,0.7
		c0.6,0.3,1.1,0.6,3,0.4c-0.6-0.1-0.4-0.3-0.3-0.4c0-0.1-0.1-0.2-1.6-0.3c1.4-0.1,2.8,0.5,4.3,0.1l-1,0.5c0.5,0,1.1-0.2,1.4-0.3
		l-0.1,0.4c0.9-0.4,1.8-0.3,2.6-0.3c0.8-0.1,1.4-0.1,1.9-0.6c-0.7,0.8,1.4-0.2,2.1-0.1c-1.4,0.7-4.3,0.7-4.5,1.2
		c0.7,0.2,1.3-0.3,2-0.2c0.4-0.2,0.7-0.2,0.1,0c0,0-0.1,0-0.1,0c-0.5,0.2-1.2,0.4-1.3,0.6c2.4,0,3.7-0.9,5-1.3l-2.5,0.5
		c0.1-0.6,1.1-0.3,1.7-0.8c0.3,0,0.6,0,0.9,0c0.3-0.1,0.5-0.2,0.8-0.2c0.5-0.2,1-0.4,1.5-0.4c-0.3,0.1-0.3,0.1-0.5,0.2
		c2.6-0.7,3.7,0.1,4.7-0.3c1.1-0.3,2.9-1.3,2.1-1.3c0.8-0.5-3.4,1.4-2.2,0.2c0.9,0.2,1.6-0.2,2.6-0.7c0.5-0.2,1-0.5,1.6-0.8
		c0.6-0.3,1.3-0.6,2.1-0.8c-1.2,0.9,1,0.1-0.1,0.9c1.5-0.8,1.5-0.9,2-1.5l0.6,0c1.6-1.6,0.2-0.7,2.8-2.7c-0.8,0.7,1.3-0.3,0.7,0.3
		c0.8-0.5,1.5-1,1.9-1.5l-0.1,0.1c1.3-1,1.9-1.4,2.4-1.7c0.3-0.2,0.5-0.3,0.9-0.6c0.2-0.1,0.4-0.3,0.6-0.4c0.2-0.2,0.4-0.4,0.7-0.7
		l-0.3,0.1c0.6-0.7,1.4-1.5,2.1-2.2c0.4-0.4,0.8-0.7,1.2-1.1c0.4-0.4,0.7-0.8,1.1-1.2c0.7-0.8,1.5-1.6,2.2-2.5
		c0.7-0.8,1.3-1.7,1.8-2.6l-1,1c0.3-0.3,1.4-2.3,2.4-3.2c0.1-0.1,0.1-0.2,0.1-0.1c0,0-0.1,0.1-0.1,0.1c-0.1,0.2-0.3,0.6-0.5,0.8
		c0.2,0.1,0.7-0.1,1.3-0.9l0-0.5l0.4-0.2c0.8-1.3-0.6,0.1,0.2-1.1c0.3-0.1,0.6-0.4,1-1c0.4-0.5,0.9-1.2,1.2-1.9
		c0.7-1.5,1.5-3,2.1-3.4c-0.1-1.1-1.3,2.5-1.3,1.3c0.3-0.4,0.5-0.5,0.9-1.3l-0.5,0.2c0.6-1,0.9-1.8,1.3-2.6c0.3-0.8,0.7-1.5,1-2.2
		c0.7-1.3,1-2.7,1.5-4.7l0,0.2c0.5-1.3,0.7-2.1,0.4-2.8c0.2-0.3,0.1,0.8,0.4,0.2c-0.3-1.3,0.1-2.5,0.5-3.6c0.2-0.5,0.4-1.1,0.5-1.5
		c0.1-0.5,0.1-0.9-0.1-1.3c0.7,0.3,1.6-3,2-1.6l0-1.1c0.5,0.4-0.2,3.3,0.3,4c-0.3,1.1-0.6,2.2-1,3.3
		C122.2,73.5,122.3,74.1,122.5,73.6z M12.3,79.6l0,0.9c-0.1-0.5-0.2-0.8-0.1-1L12.3,79.6z M18,94.2l0.1-0.7l0.1,0.2L18,94.2z
		 M57.2,93.4L57.2,93.4l-0.5-0.1C57,93.4,57.1,93.4,57.2,93.4z M49.3,91.8l-0.1,0l-0.1-0.2L49.3,91.8z M43.4,90.5
		c-0.3-0.1-0.6-0.2-0.9-0.2C42.5,90.1,42.8,90.4,43.4,90.5z M26.8,103.5c-0.3,0.5-0.4-0.3-1.2-1.1C25.9,102.8,26.4,103.2,26.8,103.5
		z M123.1,64.7l0.4,0.7l-0.5,0.3C123.1,65.5,123.1,64.9,123.1,64.7z M123.4,68l-0.1-0.4l0.3-0.8L123.4,68z M123.6,64.2
		c-0.1,0,0.2-0.5,0.4,0.4C123.9,64.6,123.6,64.8,123.6,64.2z"></path>
	<path fill="#00DDFF" d="M78.3,121.5l0.4,0C78.9,121.3,79.1,121.2,78.3,121.5z"></path>
	<path fill="#00DDFF" d="M85.5,43.9c0.1,0.1,0.2,0.3,0.4,0.5c0,0,0.1,0.1,0.1,0.1c-0.1-0.1-0.1-0.3-0.2-0.4
		C85.7,43.9,85.6,43.9,85.5,43.9z"></path>
	<path fill="#00DDFF" d="M72.8,46C72.8,46,72.8,46,72.8,46C72.8,46,72.8,45.9,72.8,46z"></path>
	<path fill="#00DDFF" d="M71.8,93.1c0.3,0,0.5,0,0.7-0.1C72.2,93,72,93.1,71.8,93.1z"></path>
	<path fill="#00DDFF" d="M54.7,92.8c0.1,0.1,0.6,0.1,0.8,0.1C55.2,92.8,55,92.7,54.7,92.8z"></path>
	<path fill="#00DDFF" d="M85.2,43.2c0.1,0.2,0.3,0.4,0.4,0.5C85.5,43.5,85.4,43.3,85.2,43.2z"></path>
	<path fill="#00DDFF" d="M13,84.4c0.1-0.4-0.4-1.1-0.6-1.4C12.5,83.7,12.4,84.1,13,84.4z"></path>
	<path fill="#00DDFF" d="M75.4,83.3C75.5,83.3,75.4,83.3,75.4,83.3c-0.1,0.1,0.1,0.1,0.2,0c0,0.1,0,0.1,0.1,0.1l-0.1,0.1l0.1,0
		l-0.2,0c0,0.1,0.2-0.1,0.2,0l-0.1,0.1c0.1,0,0.2-0.1,0.1,0c0.1,0,0.1-0.1,0.2-0.1c0,0-0.1,0.1-0.1,0.1c0.1,0,0.1-0.1,0.1-0.1
		c0.1,0.1-0.3,0.3-0.1,0.3c0-0.1,0.2-0.1,0.1-0.2c0.1,0-0.1,0.2,0.1,0.1l-0.1,0.1c0,0,0.1,0,0.1,0L75.8,84c0.2-0.1,0,0.2,0.2,0
		c-0.2,0.1,0,0,0,0.1c-0.1,0.1-0.1-0.1-0.2,0c0,0.1,0.1,0,0,0.1c0,0,0,0,0,0c0,0,0,0,0,0c0,0-0.1,0-0.1,0.1c0,0.1,0.2,0,0.3,0
		l-0.1,0c0.1-0.1,0.1,0,0.2-0.1c0,0.1,0.1,0,0.1,0.1c0,0,0,0,0,0c0.1,0-0.1,0.3,0,0.4c0,0,0.1,0,0.2-0.1c0.1,0-0.1,0,0-0.2
		c-0.1,0.3,0.1,0,0.2,0.2c-0.1,0.1,0,0.2-0.1,0.2c0.1,0,0.1,0,0.1-0.1l0,0.1c0.1-0.2,0.1-0.2,0.2-0.2c-0.1,0.1,0,0.1,0,0.2
		c0,0,0.1,0,0.1-0.1l0,0c0.1,0,0.1,0.1,0.2,0l0-0.1c0.1-0.1,0.3,0,0.4-0.1l0,0c0,0,0.1-0.1,0.1,0c0,0,0,0,0,0c0,0.1,0,0.2,0.1,0.2
		l0-0.1l0,0.1c0,0,0-0.1,0-0.1c0.1,0.3,0.2,0,0.3,0.2c0-0.2-0.1,0-0.1-0.2c0,0,0,0.1,0.1,0.1l0-0.1c0.2,0,0.3,0.1,0.4,0l0,0
		c0.1,0,0.1,0,0-0.1c0,0,0,0.1,0.1,0.1c-0.1-0.3,0.3,0.1,0.2-0.1c0.1,0.1,0.1,0.2,0.2,0.2c0,0,0.1,0,0.1-0.1
		c0.5-0.4,0.8-1.1,0.8-1.7c0,0,0,0,0,0c0,0,0,0,0,0c0-0.1,0-0.1,0-0.2c0,0-0.1,0-0.1,0c0,0,0.1,0,0.1,0c0,0,0,0,0,0l-0.1,0
		c0,0,0,0,0.1,0c0-0.1,0-0.1,0-0.2l0,0l0,0l0-0.1c0-0.1,0-0.1,0-0.2c0,0-0.1,0-0.1,0c0.1-0.1,0-0.3,0-0.4c0-0.1-0.1-0.2-0.2-0.3
		c-0.1,0-0.1,0-0.2,0.1c0.1,0,0.2,0,0.1,0.1c-0.1,0-0.1,0-0.2,0c0.1-0.1,0.1,0,0.2-0.1c0,0-0.1,0-0.1,0c0.1,0,0.1-0.1,0.1-0.1
		c-0.1-0.1,0-0.2-0.1-0.3c0,0,0,0,0,0c0,0,0,0-0.1,0c-0.1,0-0.2,0.1-0.2,0.2c0,0,0-0.1-0.1-0.1c0,0.2,0,0-0.1,0.1c0,0,0-0.1,0-0.1
		c0,0-0.1,0-0.1,0.1c0-0.1,0.2-0.2,0.3-0.3c0,0,0,0-0.1,0l0,0.1l0,0l0-0.1c0,0,0,0-0.1,0c-0.1,0.2-0.3,0.4-0.3,0.5
		c-0.1,0.1,0-0.1,0-0.1c0-0.2-0.1,0.1-0.1,0l0.1-0.1c0,0-0.1,0-0.1,0c0-0.1,0.2-0.2,0.2-0.3c-0.1-0.1-0.3,0.2-0.3,0.3
		C77.9,81,78,81,78,81c-0.1,0.1-0.1,0.1-0.2,0.2l-0.1-0.1c0,0,0.1,0,0.1-0.1c0,0,0,0,0-0.1c0.1-0.1,0.2-0.2,0.3-0.4c0,0-0.1,0-0.1,0
		c-0.1,0.2-0.2,0.3-0.2,0.4c0,0,0.1-0.3,0.1-0.4c-0.1,0-0.2,0.4-0.3,0.3l0,0.1c0,0-0.1-0.1-0.1,0c0-0.1,0-0.3,0-0.3
		c0,0.1-0.1,0.2-0.1,0.3c0,0,0-0.3,0.1-0.3c0,0-0.1,0.3-0.1,0.3c0-0.2,0-0.1-0.1-0.3c0,0,0,0.3,0,0.3c0,0.1-0.1,0-0.1,0l0,0l0,0
		c0,0,0,0-0.1,0.1l0-0.4l0,0.3l0,0c0.1-0.1,0.1-0.3,0.1-0.5c0,0,0,0,0,0c0,0.2-0.1,0.3-0.1,0.5c0,0,0-0.3,0-0.3
		c0,0.2-0.2,0.2-0.3,0.2l0,0c0-0.1-0.1-0.1-0.1,0c0,0,0,0,0,0c-0.1-0.1,0,0.3-0.1,0.2c0.1,0,0-0.1,0-0.2c0,0.1-0.2,0-0.1,0.3
		c0,0-0.1,0-0.1-0.1l0,0.2c0,0,0-0.1-0.1-0.1c0.1,0,0-0.2,0.1-0.1c0-0.1-0.1-0.2-0.1-0.4c-0.1,0.1-0.1,0.4-0.1,0.6L76.3,81l0,0.1
		l-0.1-0.1c0,0,0,0.1,0,0.1c0,0,0,0,0-0.1c0,0,0,0,0,0.1c-0.1-0.1-0.1-0.2-0.1-0.3l0,0c0,0.1,0,0.3,0.1,0.4L76.1,81
		c0,0.2,0,0.1,0,0.3c0,0-0.1-0.1-0.1-0.1c0.1,0.2-0.3-0.1-0.2,0.1c0,0.1,0.1,0.1,0.1,0.2c0,0,0,0,0,0l0.1,0.1c0,0,0-0.1-0.1-0.1
		c0,0.1,0.1,0.2,0,0.2c0,0.1,0.2,0.1,0.2,0.2c-0.1-0.1-0.2-0.1-0.2-0.1c0,0.1,0.1,0.1,0.1,0.2l-0.1-0.1c0,0,0,0.1-0.1,0
		c0,0.1,0,0.1,0,0.1c0,0.1,0.3,0.1,0.4,0.2c-0.1,0-0.1,0-0.3,0l0-0.1c-0.2,0,0.2,0.2-0.2,0.1c0,0,0-0.1-0.1-0.1l0.1,0.1
		c0,0,0,0-0.1,0c0,0,0.1,0.1,0.1,0.1l0,0c0,0,0,0.1,0,0.1c0,0,0,0-0.1,0l0.1,0.1c0,0-0.1,0-0.1,0c-0.1,0.1,0.3,0.2,0.2,0.2
		c0,0,0,0,0,0l-0.1,0c0.3,0.1,0,0.2,0.3,0.2c-0.1,0-0.1,0-0.2-0.1l-0.1,0c0,0,0,0,0-0.1c-0.1,0,0,0.1,0.1,0.2c-0.1,0-0.3,0-0.2,0
		c0.1,0.1,0.2,0,0.3,0l-0.2,0c0.1,0.1,0,0.1,0,0.2c0,0,0,0,0.1,0l0,0l0,0c0.1,0,0.1,0,0.1,0l-0.1,0l0,0c-0.1,0.1,0.2,0.1,0.1,0.1
		c0,0-0.1,0-0.1,0.1l0.1,0c-0.1,0-0.2,0-0.2,0c0,0,0.1,0,0.1,0C75.5,83.2,75.5,83.2,75.4,83.3c0-0.1,0.1-0.1,0.2-0.1c0,0,0,0,0,0
		c0,0,0.1,0,0,0.1L75.4,83.3C75.6,83.3,75.5,83.3,75.4,83.3z M79.1,81.7C79.1,81.7,79.1,81.7,79.1,81.7L79,81.8L79.1,81.7z M79,81.6
		c0,0.1-0.1,0-0.1,0C78.8,81.6,78.9,81.6,79,81.6z M77.7,80.9c0,0,0,0.1,0,0.1c0-0.1,0,0.1-0.1,0.1C77.6,80.9,77.6,80.9,77.7,80.9z
		 M75.9,81.8C75.9,81.8,75.9,81.8,75.9,81.8L75.9,81.8L75.9,81.8z M75.7,82.2l-0.1,0L75.7,82.2L75.7,82.2z M75.8,82.5
		C75.8,82.6,75.8,82.6,75.8,82.5C75.6,82.6,75.8,82.6,75.8,82.5z"></path>
	<path fill="#00DDFF" d="M9.8,51.7c0.3-0.5,0.4-1,0.4-1.3C10,50.9,9.9,51.4,9.8,51.7z"></path>
	<path fill="#00DDFF" d="M26.4,21.1c-0.3,0.2-0.1,0.1,0,0.2C26.3,21.3,26.3,21.2,26.4,21.1z"></path>
	<path fill="#00DDFF" d="M83.9,9.1C83.2,8.8,82.9,8.6,83.9,9.1C83.8,9.1,83.8,9.1,83.9,9.1z"></path>
</g>
</svg></g>
        </g><g id="shape_3nqTnBZo8C" class="replace_first_letter"  ref="shape_3nqTnBZo8C" key="shape_3nqTnBZo8C" transform="translate(46.17,-104.82) rotate(0,287.90247049757,442.82) scale(1,1)" style="cursor:move;display:inline;opacity:1;" filter="">
            <g style="display:inline"><svg xmlns="http://www.w3.org/2000/svg" version="1.1" xmlns:xlink="http://www.w3.org/1999/xlink" width="953.32" height="885.6399999999999" viewBox="0 0 953.32 885.6399999999999" preserveAspectRatio="none" data-parent="shape_3nqTnBZo8C"><rect fill="rgba(0,0,0,0)" width="462" height="147" x="122.83" y="369.32"></rect><g data-width="461.96362999999997" transform="translate(122.84818500000002, 0)"><path d="M28.25 0.98Q20.76 0.98 15.11-1.90Q9.46-4.79 6.33-10.01Q3.19-15.23 3.19-21.86L3.19-21.86L3.19-25.67Q3.19-26.29 3.62-26.72Q4.05-27.15 4.67-27.15L4.67-27.15L21.86-27.15Q22.48-27.15 22.91-26.72Q23.34-26.29 23.34-25.67L23.34-25.67L23.34-22.85Q23.34-19.90 24.75-18.18Q26.16-16.46 28.37-16.46L28.37-16.46Q30.58-16.46 32.00-18.12Q33.41-19.78 33.41-22.36L33.41-22.36Q33.41-25.18 31.20-27.45Q28.99-29.72 22.36-34.52L22.36-34.52Q16.21-38.94 12.28-42.44Q8.35-45.94 5.53-51.16Q2.70-56.38 2.70-63.26L2.70-63.26Q2.70-70.26 5.83-75.66Q8.97-81.07 14.68-84.02Q20.39-86.96 27.76-86.96L27.76-86.96Q35.25-86.96 40.96-83.95Q46.68-80.94 49.81-75.48Q52.94-70.01 52.94-62.89L52.94-62.89L52.94-59.94Q52.94-59.33 52.51-58.90Q52.08-58.47 51.47-58.47L51.47-58.47L34.39-58.47Q33.78-58.47 33.35-58.90Q32.92-59.33 32.92-59.94L32.92-59.94L32.92-63.38Q32.92-66.08 31.44-67.80Q29.97-69.52 27.76-69.52L27.76-69.52Q25.55-69.52 24.20-67.80Q22.85-66.08 22.85-63.26L22.85-63.26Q22.85-60.19 24.93-57.73Q27.02-55.27 33.41-50.61L33.41-50.61Q41.15-44.83 45.08-41.27Q49.01-37.71 51.22-33.35Q53.43-28.99 53.43-23.09L53.43-23.09Q53.43-12.04 46.49-5.53Q39.55 0.98 28.25 0.98L28.25 0.98Z" transform="translate(0 491.32) " fill="#FFFFFF" stroke="#FFFFFF" stroke-width="0.205" data-glyph-w="55.76482" data-glyph-h="147.396" data-glyph-ascender="122.83" data-glyph-descender="-24.566"></path><path d="M28.25 0.98Q20.76 0.98 15.11-1.90Q9.46-4.79 6.33-10.01Q3.19-15.23 3.19-21.86L3.19-21.86L3.19-25.67Q3.19-26.29 3.62-26.72Q4.05-27.15 4.67-27.15L4.67-27.15L21.86-27.15Q22.48-27.15 22.91-26.72Q23.34-26.29 23.34-25.67L23.34-25.67L23.34-22.85Q23.34-19.90 24.75-18.18Q26.16-16.46 28.37-16.46L28.37-16.46Q30.58-16.46 32.00-18.12Q33.41-19.78 33.41-22.36L33.41-22.36Q33.41-25.18 31.20-27.45Q28.99-29.72 22.36-34.52L22.36-34.52Q16.21-38.94 12.28-42.44Q8.35-45.94 5.53-51.16Q2.70-56.38 2.70-63.26L2.70-63.26Q2.70-70.26 5.83-75.66Q8.97-81.07 14.68-84.02Q20.39-86.96 27.76-86.96L27.76-86.96Q35.25-86.96 40.96-83.95Q46.68-80.94 49.81-75.48Q52.94-70.01 52.94-62.89L52.94-62.89L52.94-59.94Q52.94-59.33 52.51-58.90Q52.08-58.47 51.47-58.47L51.47-58.47L34.39-58.47Q33.78-58.47 33.35-58.90Q32.92-59.33 32.92-59.94L32.92-59.94L32.92-63.38Q32.92-66.08 31.44-67.80Q29.97-69.52 27.76-69.52L27.76-69.52Q25.55-69.52 24.20-67.80Q22.85-66.08 22.85-63.26L22.85-63.26Q22.85-60.19 24.93-57.73Q27.02-55.27 33.41-50.61L33.41-50.61Q41.15-44.83 45.08-41.27Q49.01-37.71 51.22-33.35Q53.43-28.99 53.43-23.09L53.43-23.09Q53.43-12.04 46.49-5.53Q39.55 0.98 28.25 0.98L28.25 0.98Z" transform="translate(55.76482 491.32) " fill="#FFFFFF" stroke="#FFFFFF" stroke-width="0.205" data-glyph-w="55.76482" data-glyph-h="147.396" data-glyph-ascender="122.83" data-glyph-descender="-24.566"></path><path d="M34.76-84.51Q34.76-85.12 35.19-85.55Q35.62-85.98 36.23-85.98L36.23-85.98L53.68-85.98Q54.29-85.98 54.72-85.55Q55.15-85.12 55.15-84.51L55.15-84.51L55.15-1.47Q55.15-0.86 54.72-0.43Q54.29 0 53.68 0L53.68 0L36.23 0Q35.62 0 35.19-0.43Q34.76-0.86 34.76-1.47L34.76-1.47L34.76-33.66Q34.76-34.27 34.15-34.27L34.15-34.27L25.30-34.27Q24.69-34.27 24.69-33.66L24.69-33.66L24.69-1.47Q24.69-0.86 24.26-0.43Q23.83 0 23.21 0L23.21 0L5.77 0Q5.16 0 4.73-0.43Q4.30-0.86 4.30-1.47L4.30-1.47L4.30-84.51Q4.30-85.12 4.73-85.55Q5.16-85.98 5.77-85.98L5.77-85.98L23.21-85.98Q23.83-85.98 24.26-85.55Q24.69-85.12 24.69-84.51L24.69-84.51L24.69-52.45Q24.69-51.83 25.30-51.83L25.30-51.83L34.15-51.83Q34.76-51.83 34.76-52.45L34.76-52.45L34.76-84.51Z" transform="translate(111.52964 491.32) " fill="#FFFFFF" stroke="#FFFFFF" stroke-width="0.205" data-glyph-w="59.32689" data-glyph-h="147.396" data-glyph-ascender="122.83" data-glyph-descender="-24.566"></path><path d="M55.52-85.98Q56.13-85.98 56.56-85.55Q56.99-85.12 56.99-84.51L56.99-84.51L56.99-70.01Q56.99-69.40 56.56-68.97Q56.13-68.54 55.52-68.54L55.52-68.54L40.29-68.54Q39.67-68.54 39.67-67.92L39.67-67.92L39.67-1.47Q39.67-0.86 39.24-0.43Q38.81 0 38.20 0L38.20 0L20.76 0Q20.14 0 19.71-0.43Q19.28-0.86 19.28-1.47L19.28-1.47L19.28-67.92Q19.28-68.54 18.67-68.54L18.67-68.54L4.05-68.54Q3.44-68.54 3.01-68.97Q2.58-69.40 2.58-70.01L2.58-70.01L2.58-84.51Q2.58-85.12 3.01-85.55Q3.44-85.98 4.05-85.98L4.05-85.98L55.52-85.98Z" transform="translate(170.85653 491.32) " fill="#FFFFFF" stroke="#FFFFFF" stroke-width="0.205" data-glyph-w="59.57255" data-glyph-h="147.396" data-glyph-ascender="122.83" data-glyph-descender="-24.566"></path><path d="M28.99 0.98Q17.32 0.98 10.32-5.59Q3.32-12.16 3.32-23.21L3.32-23.21L3.32-62.89Q3.32-73.94 10.32-80.45Q17.32-86.96 28.99-86.96L28.99-86.96Q40.66-86.96 47.72-80.33Q54.78-73.70 54.78-62.64L54.78-62.64L54.78-58.10Q54.78-57.48 54.35-57.05Q53.92-56.62 53.31-56.62L53.31-56.62L35.87-56.62Q35.25-56.62 34.82-57.05Q34.39-57.48 34.39-58.10L34.39-58.10L34.39-62.89Q34.39-65.84 32.92-67.68Q31.44-69.52 28.99-69.52L28.99-69.52Q26.65-69.52 25.18-67.68Q23.71-65.84 23.71-62.89L23.71-62.89L23.71-23.09Q23.71-20.14 25.18-18.30Q26.65-16.46 28.99-16.46L28.99-16.46Q31.44-16.46 32.92-18.30Q34.39-20.14 34.39-23.09L34.39-23.09L34.39-30.95Q34.39-31.57 33.78-31.57L33.78-31.57L30.58-31.57Q29.97-31.57 29.54-32.00Q29.11-32.43 29.11-33.04L29.11-33.04L29.11-46.06Q29.11-46.68 29.54-47.11Q29.97-47.54 30.58-47.54L30.58-47.54L53.31-47.54Q53.92-47.54 54.35-47.11Q54.78-46.68 54.78-46.06L54.78-46.06L54.78-23.21Q54.78-12.16 47.72-5.59Q40.66 0.98 28.99 0.98L28.99 0.98Z" transform="translate(230.42908 491.32) " fill="#FFFFFF" stroke="#FFFFFF" stroke-width="0.205" data-glyph-w="58.098589999999994" data-glyph-h="147.396" data-glyph-ascender="122.83" data-glyph-descender="-24.566"></path><path d="M5.77 0Q5.16 0 4.73-0.43Q4.30-0.86 4.30-1.47L4.30-1.47L4.30-84.51Q4.30-85.12 4.73-85.55Q5.16-85.98 5.77-85.98L5.77-85.98L23.21-85.98Q23.83-85.98 24.26-85.55Q24.69-85.12 24.69-84.51L24.69-84.51L24.69-18.06Q24.69-17.44 25.30-17.44L25.30-17.44L50.36-17.44Q50.97-17.44 51.40-17.01Q51.83-16.58 51.83-15.97L51.83-15.97L51.83-1.47Q51.83-0.86 51.40-0.43Q50.97 0 50.36 0L50.36 0L5.77 0Z" transform="translate(288.52767 491.32) " fill="#FFFFFF" stroke="#FFFFFF" stroke-width="0.205" data-glyph-w="53.67671" data-glyph-h="147.396" data-glyph-ascender="122.83" data-glyph-descender="-24.566"></path><path d="M3.81 0Q2.95 0 2.70-0.49Q2.46-0.98 2.70-1.72L2.70-1.72L19.16-42.62Q19.28-42.99 19.16-43.36L19.16-43.36L2.70-84.26Q2.58-84.51 2.58-85.00L2.58-85.00Q2.58-85.98 3.81-85.98L3.81-85.98L21.62-85.98Q22.85-85.98 23.21-84.75L23.21-84.75L29.85-64.49Q29.97-63.99 30.22-63.99Q30.46-63.99 30.58-64.49L30.58-64.49L37.09-84.75Q37.46-85.98 38.69-85.98L38.69-85.98L56.38-85.98Q57.24-85.98 57.48-85.49Q57.73-85.00 57.48-84.26L57.48-84.26L41.03-43.36Q40.90-42.99 41.03-42.62L41.03-42.62L57.48-1.72Q57.61-1.47 57.61-0.98L57.61-0.98Q57.61 0 56.38 0L56.38 0L38.81 0Q37.59 0 37.22-1.23L37.22-1.23L30.58-21.37Q30.46-21.86 30.22-21.80Q29.97-21.74 29.85-21.37L29.85-21.37L23.09-1.23Q22.72 0 21.50 0L21.50 0L3.81 0Z" transform="translate(342.20438 491.32) " fill="#FFFFFF" stroke="#FFFFFF" stroke-width="0.205" data-glyph-w="60.186699999999995" data-glyph-h="147.396" data-glyph-ascender="122.83" data-glyph-descender="-24.566"></path><path d="M55.52-85.98Q56.13-85.98 56.56-85.55Q56.99-85.12 56.99-84.51L56.99-84.51L56.99-70.01Q56.99-69.40 56.56-68.97Q56.13-68.54 55.52-68.54L55.52-68.54L40.29-68.54Q39.67-68.54 39.67-67.92L39.67-67.92L39.67-1.47Q39.67-0.86 39.24-0.43Q38.81 0 38.20 0L38.20 0L20.76 0Q20.14 0 19.71-0.43Q19.28-0.86 19.28-1.47L19.28-1.47L19.28-67.92Q19.28-68.54 18.67-68.54L18.67-68.54L4.05-68.54Q3.44-68.54 3.01-68.97Q2.58-69.40 2.58-70.01L2.58-70.01L2.58-84.51Q2.58-85.12 3.01-85.55Q3.44-85.98 4.05-85.98L4.05-85.98L55.52-85.98Z" transform="translate(402.39108 491.32) " fill="#FFFFFF" stroke="#FFFFFF" stroke-width="0.205" data-glyph-w="59.57255" data-glyph-h="147.396" data-glyph-ascender="122.83" data-glyph-descender="-24.566"></path></g></svg></g>
        </g><g id="shape_vmvt9GFWnu" class="brand_name"  ref="shape_vmvt9GFWnu" key="shape_vmvt9GFWnu" transform="translate(242.13,308.89) rotate(0,135.77401427059,103.61) scale(1,1)" style="cursor:move;display:inline;opacity:1;" filter="">
            <g style="display:inline"><svg xmlns="http://www.w3.org/2000/svg" version="1.1" xmlns:xlink="http://www.w3.org/1999/xlink" width="373.48" height="207.22" viewBox="0 0 373.48 207.22" preserveAspectRatio="none" data-parent="shape_vmvt9GFWnu"><rect fill="rgba(0,0,0,0)" width="258" height="34" x="28.87" y="86.61"></rect><g data-width="257.02803969037353" transform="translate(29.355980154813235, 0)"><path d="M4.12 2.23L4.12-8.04Q3.04-6.09 1.80-4.51L1.80-4.51L0.79-6.09Q2.68-10.85 3.86-16.21L3.86-16.21L1.18-16.21L1.18-18.21L4.12-18.21L4.12-23.03L7.25-23.03L7.25-18.21L9.56-18.21L9.56-16.21L7.25-16.21L7.25-14.55L7.81-14.97Q9.64-12.21 10.63-9.64L10.63-9.64L8.26-7.47Q7.81-9.08 7.25-11.02L7.25-11.02L7.25 2.23L4.12 2.23ZM18.97-4.93L22.27-5.92Q21.34-9.87 19.06-13.93L19.06-13.93L17.31-13.36Q18.27-9.16 18.97-4.93L18.97-4.93ZM23.91 2.23L18.86 2.23L18.49 0.23L21.91 0.23Q22.47 0.23 22.47-0.37L22.47-0.37L22.47-16.21L17.82-16.21L17.82-18.21L22.47-18.21L22.47-23.03L25.94-23.03L25.94-18.21L27.66-18.21L27.66-16.21L25.94-16.21L25.94 0.23Q25.94 1.04 25.35 1.64L25.35 1.64Q24.75 2.23 23.91 2.23L23.91 2.23ZM16.01-0.93L19.03-2.65Q17.65-5.24 15.51-8.66L15.51-8.66Q17.20-13.48 17.25-18.83L17.25-18.83L17.25-20.83L9.13-20.83L9.13-18.83L14.07-18.83Q14.07-15.70 13.22-12.18L13.22-12.18Q11.90-14.15 10.60-15.84L10.60-15.84L9.08-14.91Q10.46-12.38 12.26-8.80L12.26-8.80Q10.54-3.69 8.23 0L8.23 0L9.61 1.07Q9.75 1.07 11.02-0.51L11.02-0.51Q12.72-2.59 14.04-5.19L14.04-5.19Q15.11-2.93 16.01-0.93L16.01-0.93Z" transform="translate(0 113.61) " fill="#FFFFFF" stroke="#FFFFFF" stroke-width="0.048" data-glyph-w="32.12850496129669" data-glyph-h="28.193359375" data-glyph-ascender="24.810156250000002" data-glyph-descender="-3.383203125"></path><path d="M4.12 2.23L4.12-8.04Q3.04-6.09 1.80-4.51L1.80-4.51L0.79-6.09Q2.68-10.85 3.86-16.21L3.86-16.21L1.18-16.21L1.18-18.21L4.12-18.21L4.12-23.03L7.25-23.03L7.25-18.21L9.56-18.21L9.56-16.21L7.25-16.21L7.25-14.55L7.81-14.97Q9.64-12.21 10.63-9.64L10.63-9.64L8.26-7.47Q7.81-9.08 7.25-11.02L7.25-11.02L7.25 2.23L4.12 2.23ZM18.97-4.93L22.27-5.92Q21.34-9.87 19.06-13.93L19.06-13.93L17.31-13.36Q18.27-9.16 18.97-4.93L18.97-4.93ZM23.91 2.23L18.86 2.23L18.49 0.23L21.91 0.23Q22.47 0.23 22.47-0.37L22.47-0.37L22.47-16.21L17.82-16.21L17.82-18.21L22.47-18.21L22.47-23.03L25.94-23.03L25.94-18.21L27.66-18.21L27.66-16.21L25.94-16.21L25.94 0.23Q25.94 1.04 25.35 1.64L25.35 1.64Q24.75 2.23 23.91 2.23L23.91 2.23ZM16.01-0.93L19.03-2.65Q17.65-5.24 15.51-8.66L15.51-8.66Q17.20-13.48 17.25-18.83L17.25-18.83L17.25-20.83L9.13-20.83L9.13-18.83L14.07-18.83Q14.07-15.70 13.22-12.18L13.22-12.18Q11.90-14.15 10.60-15.84L10.60-15.84L9.08-14.91Q10.46-12.38 12.26-8.80L12.26-8.80Q10.54-3.69 8.23 0L8.23 0L9.61 1.07Q9.75 1.07 11.02-0.51L11.02-0.51Q12.72-2.59 14.04-5.19L14.04-5.19Q15.11-2.93 16.01-0.93L16.01-0.93Z" transform="translate(32.12850496129669 113.61) " fill="#FFFFFF" stroke="#FFFFFF" stroke-width="0.048" data-glyph-w="32.12850496129669" data-glyph-h="28.193359375" data-glyph-ascender="24.810156250000002" data-glyph-descender="-3.383203125"></path><path d="M7.22-13.19L7.22-10.66Q7.22-4.43 4.57-0.34L4.57-0.34Q3.21 1.72 1.89 2.51L1.89 2.51L0.79 0.93Q3.78-2.99 3.78-10.85L3.78-10.85L3.78-21.48Q16.55-21.91 25.49-23.34L25.49-23.34L27.32-20.44Q19.26-19.54 7.22-19.40L7.22-19.40L7.22-15.22L27.66-15.22L27.66-13.19L7.22-13.19ZM26.36-9.64L8.88-9.64L8.88 1.07L26.36 1.07L26.36-9.64ZM12.32-0.93L12.32-7.61L22.92-7.61L22.92-0.93L12.32-0.93Z" transform="translate(64.25700992259338 113.61) " fill="#FFFFFF" stroke="#FFFFFF" stroke-width="0.048" data-glyph-w="32.12850496129669" data-glyph-h="28.193359375" data-glyph-ascender="24.810156250000002" data-glyph-descender="-3.383203125"></path><path d="M25.20-9.53L3.67-9.53L3.67 1.30L25.20 1.30L25.20-9.53ZM7.13-0.70L7.13-7.53L21.77-7.53L21.77-0.70L7.13-0.70ZM2.23-14.52Q1.86-14.49 1.47-14.49L1.47-14.49L2.42-11.28Q13.50-11.81 22.84-13.45L22.84-13.45Q24.16-11.93 25.46-10.40L25.46-10.40L28.08-12.72Q24.56-16.63 19.68-19.76L19.68-19.76L18.24-18.55Q19.71-16.97 21.12-15.39L21.12-15.39Q13.96-14.91 6.37-14.63L6.37-14.63Q11.53-17.85 14.75-21.85L14.75-21.85L11.50-23.34Q7.25-18.27 2.23-14.52L2.23-14.52Z" transform="translate(96.38551488389007 113.61) " fill="#FFFFFF" stroke="#FFFFFF" stroke-width="0.048" data-glyph-w="32.12850496129669" data-glyph-h="28.193359375" data-glyph-ascender="24.810156250000002" data-glyph-descender="-3.383203125"></path><path d="M4.51-23.34L7.89-22.41Q7.75-22.08 7.50-21.51L7.50-21.51L14.44-21.51L14.44-19.51L9.39-19.51Q10.88-18.75 11.93-17.76L11.93-17.76L9.22-15.99L12.80-15.99Q12.29-16.61 11.84-17.06L11.84-17.06L13.62-18.16Q15.59-17.54 17.00-16.46L17.00-16.46L16.10-15.99L21.71-15.99Q20.81-17.40 19.76-18.78L19.76-18.78L20.75-19.51L18.66-19.51Q17.54-18.13 16.10-17.25L16.10-17.25L14.60-18.41Q16.04-20.50 16.94-23.34L16.94-23.34L20.33-22.41Q20.21-22.08 19.93-21.51L19.93-21.51L27.66-21.51L27.66-19.51L22.13-19.51Q23.65-18.75 24.70-17.76L24.70-17.76L21.99-15.99L27.15-15.99L27.15-12.35L23.71-12.35L23.71-13.96L5.19-13.96L5.19-12.35L1.75-12.35L1.75-15.90L0.79-16.80Q3.04-19.48 4.51-23.34L4.51-23.34ZM7.33-6.06L24.81-6.06L24.81-11.90L3.89-11.90L3.89 1.47L25.51 1.47L25.51-4.51L7.33-4.51L7.33-6.06ZM22.08-0.56L7.33-0.56L7.33-2.51L22.08-2.51L22.08-0.56ZM7.33-8.09L7.33-9.90L21.37-9.90L21.37-8.09L7.33-8.09ZM2.82-15.99L8.97-15.99Q8.06-17.40 6.99-18.78L6.99-18.78L7.98-19.51L6.29-19.51Q4.79-17.34 2.82-15.99L2.82-15.99Z" transform="translate(128.51401984518677 113.61) " fill="#FFFFFF" stroke="#FFFFFF" stroke-width="0.048" data-glyph-w="32.12850496129669" data-glyph-h="28.193359375" data-glyph-ascender="24.810156250000002" data-glyph-descender="-3.383203125"></path><path d="M10.15-19.43L10.15-21.43L1.21-21.43L1.21-19.43L3.95-19.43L3.95-12.77L1.58-12.77L1.58-10.77L3.95-10.77L3.95-3.04Q2.31-2.54 0.79-2.09L0.79-2.09L1.86 1.07Q6.40-0.34 10.57-3.21L10.57-3.21L9.84-4.93Q8.88-4.62 7.41-4.12L7.41-4.12L7.41-10.77L9.78-10.77L9.78-12.77L7.41-12.77L7.41-19.43L10.15-19.43ZM26.64-21.91L11.08-21.91L11.08-8.60L17.14-8.60L17.14-5.84L10.74-5.84L10.74-3.83L17.14-3.83L17.14-0.73L10.07-0.73L10.07 1.30L27.66 1.30L27.66-0.73L20.58-0.73L20.58-3.83L26.98-3.83L26.98-5.84L20.58-5.84L20.58-8.60L26.64-8.60L26.64-21.91ZM23.20-10.63L20.58-10.63L20.58-14.24L23.20-14.24L23.20-10.63ZM23.20-16.27L20.58-16.27L20.58-19.88L23.20-19.88L23.20-16.27ZM14.55-19.88L17.14-19.88L17.14-16.27L14.55-16.27L14.55-19.88ZM14.55-14.24L17.14-14.24L17.14-10.63L14.55-10.63L14.55-14.24Z" transform="translate(160.64252480648346 113.61) " fill="#FFFFFF" stroke="#FFFFFF" stroke-width="0.048" data-glyph-w="32.12850496129669" data-glyph-h="28.193359375" data-glyph-ascender="24.810156250000002" data-glyph-descender="-3.383203125"></path><path d="M22.02-18.21L25.40-16.38Q20.36-12.80 9.47-9.11L9.47-9.11Q15.84-9.33 21.03-9.70L21.03-9.70Q19.99-10.91 19.31-11.67L19.31-11.67L20.44-13.00Q26.19-9.75 27.83-7.16L27.83-7.16L25.04-4.93Q23.80-6.46 22.39-8.12L22.39-8.12Q19.74-7.56 16.44-7.08L16.44-7.08L16.44 0.23Q16.44 1.04 15.84 1.64L15.84 1.64Q15.28 2.23 14.44 2.23L14.44 2.23L9.25 2.23L8.88 0.23L12.43 0.23Q13.00 0.23 13.00-0.37L13.00-0.37L13.00-6.65Q7.75-6.06 3.47-5.89L3.47-5.89L2.23-8.91Q2.54-8.94 2.79-8.94L2.79-8.94Q6.99-10.54 12.97-13.45L12.97-13.45Q8.43-12.74 4.14-12.52L4.14-12.52L3.19-15.56Q3.44-15.56 3.72-15.56L3.72-15.56Q6.54-17.03 9.95-19.43L9.95-19.43Q6.12-19.31 2.76-19.31L2.76-19.31L2.23-21.40Q15.31-21.85 25.37-23.34L25.37-23.34L26.64-20.47Q22.02-20.02 15.73-19.68L15.73-19.68Q12.97-17.59 8.85-15.73L8.85-15.73Q14.07-15.93 18.35-16.21L18.35-16.21Q20.21-17.20 22.02-18.21L22.02-18.21ZM25.66 1.41L28.08-1.18Q25.71-3.52 19.79-5.53L19.79-5.53L18.58-4.14Q22.98-1.18 25.66 1.41L25.66 1.41ZM7.95-5.67L10.49-3.24Q7.72-0.54 1.83 1.41L1.83 1.41L0.79-0.17Q4.45-2.45 7.95-5.67L7.95-5.67Z" transform="translate(192.77102976778016 113.61) " fill="#FFFFFF" stroke="#FFFFFF" stroke-width="0.048" data-glyph-w="32.12850496129669" data-glyph-h="28.193359375" data-glyph-ascender="24.810156250000002" data-glyph-descender="-3.383203125"></path><path d="M0.79-1.86L1.78 1.47Q5.95 0.45 10.83-1.55L10.83-1.55L10.29-3.41Q6.32-2.51 0.79-1.86L0.79-1.86ZM9.98-20.19L17.42-20.19Q16.75-21.09 15.90-22.13L15.90-22.13L17.42-23.34Q19.48-22.67 21.26-21.03L21.26-21.03L19.99-20.19L27.26-20.19L27.26-18.18L18.86-18.18Q16.92-14.49 14.21-12.04L14.21-12.04Q20.21-12.18 22.81-12.41L22.81-12.41Q21.91-14.27 20.92-16.21L20.92-16.21L22.70-17.11Q25.88-13.90 27.88-10.01L27.88-10.01L24.70-8.29Q24.19-9.42 23.65-10.57L23.65-10.57Q23.20-10.46 22.75-10.35L22.75-10.35L22.75-2.31Q22.75-0.93 24.11-0.93L24.11-0.93L28.08-0.93L27.29 1.95L22.61 1.95Q21.20 1.95 20.21 0.93L20.21 0.93Q19.31-0.06 19.31-1.38L19.31-1.38L19.31-9.67Q18.27-9.47 17.23-9.33L17.23-9.33Q17.23-0.28 9.84 2.51L9.84 2.51L8.74 0.93Q13.39-2.45 13.76-8.99L13.76-8.99Q12.60-8.91 11.50-8.88L11.50-8.88L10.46-11.95L11.14-11.95Q13.05-14.94 14.75-18.18L14.75-18.18L9.98-18.18L9.98-20.19ZM0.79-15.31L1.35-15.31Q3.27-19.03 5.16-23.34L5.16-23.34L8.68-22.30Q6.79-18.18 4.06-15.34L4.06-15.34Q5.47-15.39 6.82-15.48L6.82-15.48Q7.61-16.83 8.40-18.27L8.40-18.27L11.73-16.94Q9.22-12.04 5.13-7.95L5.13-7.95Q8.12-8.29 10.46-8.68L10.46-8.68L11.02-6.82Q6.20-5.05 2.40-4.26L2.40-4.26L1.30-7.56Q1.64-7.58 1.95-7.61L1.95-7.61Q3.58-10.04 5.24-12.77L5.24-12.77Q3.50-12.35 1.78-12.09L1.78-12.09L0.79-15.31Z" transform="translate(224.89953472907686 113.61) " fill="#FFFFFF" stroke="#FFFFFF" stroke-width="0.048" data-glyph-w="32.12850496129669" data-glyph-h="28.193359375" data-glyph-ascender="24.810156250000002" data-glyph-descender="-3.383203125"></path></g></svg></g>
        </g>
  </svg>